<svg width="12" height="24" viewBox="0 0 12 24" fill="none" xmlns="http://www.w3.org/2000/svg">
<path d="M10.5179 0H1.48827C0.669096 0 0 0.66875 0 1.49375V22.5125C0 23.3313 0.669096 24 1.48827 24H10.5117C11.3309 24 12 23.3313 12 22.5125V1.49375C12.0062 0.66875 11.3371 0 10.5179 0ZM5.00259 2.24375C5.00259 2.1125 5.10889 2 5.24646 2H6.766C6.89732 2 7.00988 2.10625 7.00988 2.24375V2.2625C7.00988 2.39375 6.90357 2.50625 6.766 2.50625H5.24646C5.11515 2.50625 5.00259 2.4 5.00259 2.2625V2.24375ZM4.2522 2C4.38977 2 4.50233 2.1125 4.50233 2.25C4.50233 2.3875 4.38977 2.5 4.2522 2.5C4.11463 2.5 4.00207 2.3875 4.00207 2.25C4.00207 2.1125 4.11463 2 4.2522 2ZM6.00311 23.0063C5.44657 23.0063 4.99633 22.5562 4.99633 22C4.99633 21.4438 5.44657 20.9937 6.00311 20.9937C6.55964 20.9937 7.00988 21.4438 7.00988 22C7.00988 22.5562 6.55339 23.0063 6.00311 23.0063ZM11.0057 20H1.00052V4H11.0057V20Z" fill="black"/>
</svg>
