<svg width="276" height="174" viewBox="0 0 276 174" fill="none" xmlns="http://www.w3.org/2000/svg">
<path d="M36.3387 1.36041H8.23187V30.6601H36.3387V1.36041Z" fill="#E0E0E0"/>
<path d="M34.4349 1.36041H6.32812V30.6601H34.4349V1.36041Z" fill="#F5F5F5"/>
<path d="M34.443 30.6683H6.34024V1.33588H34.4634L34.443 30.6683ZM6.33616 30.6683H34.4226V1.36856H6.34024L6.33616 30.6683Z" fill="#E0E0E0"/>
<path d="M30.656 5.29858H10.107V26.7178H30.656V5.29858Z" fill="white"/>
<path d="M10.107 26.8649C9.96285 27.0786 9.79572 27.2758 9.60863 27.4532C9.28181 27.8004 8.82017 28.2702 8.30542 28.7768C7.79067 29.2834 7.31269 29.7409 6.96136 30.0637C6.77281 30.2504 6.56461 30.4161 6.34039 30.558C6.48229 30.3414 6.65114 30.1437 6.84288 29.9697C7.17379 29.6224 7.63543 29.1526 8.15426 28.642C8.6731 28.1313 9.14699 27.6778 9.49833 27.3551C9.67941 27.1663 9.88399 27.0016 10.107 26.8649Z" fill="#E0E0E0"/>
<path d="M30.656 26.8118C30.8768 26.9563 31.0797 27.1263 31.2607 27.3183C31.6079 27.6452 32.0777 28.1068 32.5843 28.6216C33.0909 29.1363 33.5484 29.6143 33.8712 29.9656C34.0577 30.1439 34.2235 30.3426 34.3655 30.558C34.1489 30.4161 33.9512 30.2472 33.7772 30.0555C33.43 29.7287 32.9601 29.267 32.4495 28.7482C31.9388 28.2294 31.4854 27.7514 31.1626 27.4001C30.9688 27.2269 30.7985 27.0291 30.656 26.8118Z" fill="#E0E0E0"/>
<path d="M30.5989 5.35583C30.7448 5.14112 30.9148 4.94375 31.1054 4.76754C31.4323 4.42029 31.8939 3.95049 32.4127 3.44391C32.9316 2.93733 33.4055 2.47978 33.7527 2.15704C33.9307 1.96862 34.131 1.80262 34.3492 1.66272C34.2036 1.87772 34.0336 2.07513 33.8426 2.251C33.5158 2.59825 33.0541 3.06806 32.5353 3.57872C32.0165 4.08939 31.5385 4.54285 31.1912 4.86559C31.0152 5.05329 30.8162 5.21801 30.5989 5.35583Z" fill="#E0E0E0"/>
<path d="M10.0498 5.42119C9.83418 5.27649 9.63667 5.10641 9.46156 4.91461C9.11431 4.58779 8.6445 4.12615 8.13384 3.60732C7.62318 3.08848 7.15745 2.60233 6.85105 2.25508C6.65536 2.07957 6.48366 1.87903 6.34039 1.65863C6.55954 1.79891 6.76114 1.96486 6.94093 2.15295C7.28818 2.47977 7.75799 2.94141 8.26865 3.46025C8.77931 3.97908 9.23687 4.45706 9.55552 4.80431C9.74513 4.98873 9.91117 5.19594 10.0498 5.42119Z" fill="#E0E0E0"/>
<path d="M30.5988 26.7219C30.5988 26.7219 30.5988 26.6851 30.5988 26.6157C30.5988 26.5462 30.5988 26.4441 30.5988 26.3175C30.5988 26.0478 30.5988 25.6638 30.5988 25.1613C30.5988 24.1482 30.5988 22.6693 30.5743 20.7941C30.5743 17.0438 30.5743 11.7003 30.5376 5.29862L30.6152 5.38032H10.1233L10.2132 5.29045C10.2132 13.1546 10.2132 20.5082 10.2132 26.7137L10.1356 26.6361L24.9734 26.6729H29.1404H30.2434H30.5294C30.5619 26.6686 30.5949 26.6686 30.6274 26.6729H30.2598H29.1731H25.0224L10.1356 26.7137H10.0171V26.6361C10.0171 20.5368 10.0171 13.1832 10.0171 5.29862V5.20874H10.1111H30.6029H30.6805V5.28636C30.6805 11.7084 30.6519 17.0684 30.6438 20.835C30.6438 22.702 30.6438 24.1727 30.6193 25.1817C30.6193 25.6761 30.6193 26.056 30.6193 26.3215C30.6193 26.4482 30.6193 26.5422 30.6193 26.6116C30.6148 26.6488 30.608 26.6856 30.5988 26.7219Z" fill="#E0E0E0"/>
<path d="M23.805 12.5827H16.9499V19.4378H23.805V12.5827Z" fill="#E0E0E0"/>
<path d="M28.2662 114.543C28.2662 114.601 24.7201 114.646 20.3489 114.646C15.9776 114.646 12.4275 114.601 12.4275 114.543C12.4275 114.486 15.9735 114.441 20.3489 114.441C24.7242 114.441 28.2662 114.499 28.2662 114.543Z" fill="#FAFAFA"/>
<path d="M28.0251 116.48C28.0251 116.533 24.7038 116.578 20.6021 116.578C16.5005 116.578 13.1792 116.533 13.1792 116.48C13.1792 116.427 16.5005 116.378 20.6021 116.378C24.7038 116.378 28.0251 116.423 28.0251 116.48Z" fill="#FAFAFA"/>
<path d="M15.2912 109.404C15.422 111.056 15.422 112.716 15.2912 114.368C15.1551 112.716 15.1551 111.056 15.2912 109.404Z" fill="#FAFAFA"/>
<path d="M21.0474 109.404C21.1836 111.115 21.1836 112.833 21.0474 114.543C20.9113 112.833 20.9113 111.115 21.0474 109.404Z" fill="#FAFAFA"/>
<path d="M26.4768 109.363C26.5792 110.232 26.6133 111.108 26.5789 111.982C26.6133 112.856 26.5792 113.732 26.4768 114.601C26.3744 113.732 26.3403 112.856 26.3747 111.982C26.3403 111.108 26.3744 110.232 26.4768 109.363Z" fill="#FAFAFA"/>
<path d="M29.6715 109.404C29.6715 109.461 25.5127 109.506 20.3816 109.506C15.2504 109.506 11.0957 109.461 11.0957 109.404C11.0957 109.347 15.2504 109.306 20.3816 109.306C25.5127 109.306 29.6715 109.351 29.6715 109.404Z" fill="#FAFAFA"/>
<path d="M271.668 56.8918H244.341V85.3745H271.668V56.8918Z" fill="#E0E0E0"/>
<path d="M269.817 56.8918H242.491V85.3745H269.817V56.8918Z" fill="#F5F5F5"/>
<path d="M269.842 85.3868H242.47V56.8959H269.842V85.3868ZM242.519 85.3868H269.826V56.8959H242.503L242.519 85.3868Z" fill="#E0E0E0"/>
<path d="M266.145 60.7238H246.168V81.5507H266.145V60.7238Z" fill="white"/>
<path d="M246.168 81.6855C246.024 81.8948 245.858 82.0879 245.673 82.2615C245.355 82.5965 244.905 83.0541 244.403 83.5484C243.9 84.0427 243.439 84.4839 243.1 84.7985C242.925 84.979 242.73 85.1393 242.519 85.2765C242.661 85.069 242.825 84.8784 243.01 84.7086C243.328 84.3695 243.778 83.8915 244.284 83.4177C244.791 82.9438 245.248 82.478 245.592 82.1635C245.765 81.9826 245.958 81.8222 246.168 81.6855Z" fill="#E0E0E0"/>
<path d="M266.165 81.6365C266.374 81.7768 266.566 81.9413 266.737 82.1267C267.076 82.4494 267.53 82.8947 268.024 83.3972C268.518 83.8997 268.964 84.3614 269.274 84.7045C269.457 84.8769 269.619 85.0703 269.756 85.2806C269.548 85.139 269.356 84.9746 269.184 84.7903C268.849 84.4717 268.392 84.0223 267.893 83.5198C267.395 83.0173 266.958 82.5516 266.643 82.2084C266.46 82.039 266.299 81.8468 266.165 81.6365Z" fill="#E0E0E0"/>
<path d="M266.092 60.7769C266.232 60.5676 266.396 60.3757 266.582 60.205C266.901 59.87 267.35 59.4125 267.852 58.9181C268.355 58.4238 268.817 57.9826 269.16 57.668C269.332 57.4853 269.525 57.3235 269.736 57.186C269.597 57.3962 269.432 57.5884 269.245 57.7579C268.927 58.0929 268.477 58.5505 267.971 59.0489C267.464 59.5473 267.007 59.9844 266.664 60.299C266.493 60.481 266.301 60.6415 266.092 60.7769Z" fill="#E0E0E0"/>
<path d="M246.11 60.8301C245.902 60.6873 245.71 60.5215 245.538 60.3357C245.199 60.0171 244.746 59.5677 244.252 59.0652C243.757 58.5627 243.316 58.1011 243.002 57.762C242.818 57.5888 242.656 57.394 242.519 57.1819C242.729 57.3222 242.921 57.4867 243.091 57.6721C243.426 57.9949 243.884 58.4442 244.382 58.9467C244.881 59.4492 245.318 59.9149 245.632 60.254C245.816 60.4243 245.977 60.6179 246.11 60.8301Z" fill="#E0E0E0"/>
<path d="M266.092 81.5466C266.088 81.514 266.088 81.4811 266.092 81.4486C266.092 81.375 266.092 81.2811 266.092 81.1544C266.092 80.897 266.092 80.5212 266.092 80.031C266.092 79.0464 266.092 77.6084 266.092 75.7863C266.092 72.1382 266.071 66.9458 266.055 60.7238L266.132 60.8015H246.208L246.294 60.7157C246.294 68.3593 246.294 75.5085 246.294 81.5507L246.221 81.4771L260.646 81.5139L264.699 81.5343H265.769H264.711H260.679L246.204 81.5752H246.127V81.4976C246.127 75.4677 246.127 68.3184 246.127 60.6626V60.5727H246.217H266.141H266.165V60.6503C266.165 66.8926 266.137 72.0891 266.128 75.7659C266.128 77.5839 266.128 79.0137 266.128 79.9942C266.128 80.4762 266.128 80.848 266.128 81.1054C266.128 81.2239 266.128 81.3178 266.128 81.3873C266.128 81.4567 266.092 81.5507 266.092 81.5466Z" fill="#E0E0E0"/>
<path d="M259.49 67.8036H252.823V74.4709H259.49V67.8036Z" fill="#E0E0E0"/>
<path d="M174.458 156.222V169.143H193.353H214.196V156.222H174.458Z" fill="#F5F5F5"/>
<path d="M172.792 152.61V156.222H215.589V152.61H193.353H172.792Z" fill="#E0E0E0"/>
<path d="M194.19 169.143H214.196V156.222H215.589V152.61H193.353V155.887L194.19 169.143Z" fill="#E0E0E0"/>
<path d="M188.075 158.305H180.014V160.25H188.075V158.305Z" fill="#E0E0E0"/>
<path d="M189.325 162.685H178.977V166.79H189.325V162.685Z" fill="white"/>
<path d="M180.57 139.705V152.627H199.469H220.312V139.705H180.57Z" fill="#F5F5F5"/>
<path d="M178.903 136.089V139.705H221.701V136.089H199.469H178.903Z" fill="#EBEBEB"/>
<path d="M200.302 152.627H220.312V139.705H221.701V136.089H199.469V139.37L200.302 152.627Z" fill="#EBEBEB"/>
<path d="M194.19 141.788H186.13V143.733H194.19V141.788Z" fill="#E0E0E0"/>
<path d="M195.441 146.164H185.092V150.269H195.441V146.164Z" fill="white"/>
<path d="M270.794 122.669C270.794 122.726 210.168 122.775 135.403 122.775C60.638 122.775 0 122.722 0 122.669C0 122.616 60.6094 122.563 135.403 122.563C210.197 122.563 270.794 122.608 270.794 122.669Z" fill="#263238"/>
<path d="M225.647 0.106201H56.373C53.0856 0.106201 50.4207 2.77113 50.4207 6.05848V113.967C50.4207 117.255 53.0856 119.92 56.373 119.92H225.647C228.935 119.92 231.599 117.255 231.599 113.967V6.05848C231.599 2.77113 228.935 0.106201 225.647 0.106201Z" fill="#E0E0E0"/>
<path d="M225.647 119.92L226.035 119.895C226.193 119.891 226.35 119.873 226.505 119.842C226.725 119.816 226.942 119.771 227.155 119.707C227.764 119.555 228.343 119.299 228.866 118.952C229.595 118.481 230.211 117.855 230.668 117.117C230.942 116.682 231.16 116.214 231.318 115.724C231.478 115.169 231.563 114.594 231.571 114.017C231.571 112.791 231.571 111.471 231.571 110.029C231.571 107.149 231.571 103.824 231.571 100.082C231.571 85.109 231.571 63.4406 231.538 36.6696C231.538 29.9779 231.538 22.9743 231.538 15.6589V7.29634C231.596 6.36071 231.523 5.42163 231.322 4.50608C231.07 3.59172 230.6 2.75207 229.953 2.05906C229.305 1.36605 228.499 0.840346 227.604 0.527003C227.38 0.447413 227.15 0.381921 226.918 0.330909C226.685 0.281886 226.448 0.249203 226.211 0.220606C225.733 0.187924 225.247 0.192009 224.757 0.196094H221.799H171.55H56.3934C55.1331 0.197911 53.9069 0.605257 52.896 1.35789C51.8851 2.11053 51.1433 3.1685 50.7802 4.37535C50.6085 4.97554 50.5259 5.5977 50.5351 6.2219V26.9384C50.5351 36.8875 50.5351 46.6813 50.5351 56.3199C50.5351 75.5861 50.5351 94.166 50.5351 111.88V113.514C50.5197 114.061 50.5608 114.609 50.6577 115.148C50.8838 116.208 51.3967 117.186 52.1406 117.975C52.5096 118.366 52.9318 118.703 53.3948 118.976C53.624 119.113 53.8614 119.236 54.1057 119.344C54.3532 119.445 54.607 119.529 54.8655 119.597C55.895 119.899 56.9858 119.785 58.0643 119.805H95.2201H139.01L202.414 119.842L219.654 119.863H224.148H225.672H224.148H219.654L202.414 119.883L139.01 119.916H95.2201H70.8227H56.4302C55.8784 119.919 55.3287 119.847 54.7961 119.703C54.5295 119.632 54.2676 119.545 54.0117 119.442C53.7596 119.328 53.5141 119.199 53.2763 119.058C52.799 118.777 52.3643 118.428 51.9854 118.024C51.6012 117.622 51.2753 117.168 51.0172 116.676C50.7612 116.18 50.5704 115.652 50.4493 115.107C50.3502 114.557 50.3078 113.999 50.3227 113.44V111.806C50.3227 94.1048 50.3227 75.5249 50.3227 56.2463V6.23825C50.311 5.5932 50.3964 4.95006 50.576 4.33041C50.9523 3.07972 51.7211 1.98335 52.7688 1.20347C53.8165 0.423595 55.0873 0.00163281 56.3934 0H171.55H221.799H224.736C225.226 0 225.708 -1.24795e-07 226.203 0.0285969C226.448 0.0530764 226.692 0.0898908 226.934 0.1389C228.007 0.380042 228.995 0.907307 229.793 1.66472C230.591 2.42212 231.168 3.38141 231.465 4.44072L231.555 4.78797C231.579 4.90644 231.591 5.02491 231.612 5.14339C231.65 5.37994 231.672 5.6188 231.677 5.85831C231.677 6.33629 231.677 6.8061 231.677 7.27591V10.0825C231.677 11.9454 231.677 13.7906 231.677 15.6181C231.677 22.9253 231.677 29.9289 231.677 36.6288C231.677 63.3997 231.648 85.0681 231.64 100.041C231.64 103.783 231.64 107.108 231.64 109.988C231.64 111.431 231.64 112.762 231.64 113.976C231.632 114.559 231.544 115.139 231.379 115.7C231.222 116.199 231.001 116.675 230.721 117.117C230.259 117.86 229.637 118.49 228.899 118.96C228.372 119.305 227.791 119.557 227.179 119.707C226.965 119.769 226.747 119.813 226.526 119.838C226.369 119.866 226.211 119.881 226.052 119.883L225.647 119.92Z" fill="#263238"/>
<path d="M232.363 122.669H50.6086C48.6807 122.668 46.8322 121.901 45.4693 120.538C44.1065 119.174 43.3409 117.325 43.3409 115.397V112.186H239.635V115.397C239.635 117.326 238.869 119.176 237.505 120.539C236.142 121.903 234.292 122.669 232.363 122.669Z" fill="#E0E0E0"/>
<path d="M232.363 122.669H232.6C232.834 122.661 233.067 122.64 233.299 122.608L233.818 122.526L234.435 122.367C234.659 122.302 234.888 122.203 235.141 122.114C235.395 122.024 235.652 121.881 235.918 121.73C236.517 121.388 237.066 120.966 237.552 120.475C238.827 119.158 239.557 117.406 239.594 115.573C239.594 114.523 239.594 113.396 239.594 112.199L239.635 112.235L50.6209 112.305H43.3409L43.4471 112.199V114.752C43.4048 115.593 43.4874 116.435 43.6922 117.252C44.1237 118.877 45.1147 120.298 46.4907 121.264C47.8641 122.215 49.5172 122.677 51.1847 122.575H112.738L175.128 122.6L217.035 122.632L228.405 122.653H231.358H232.363H231.358H228.405H217.035L175.128 122.686L112.738 122.71H51.1847C49.4857 122.834 47.7938 122.388 46.3763 121.444C44.967 120.444 43.9545 118.981 43.5166 117.309C43.3082 116.475 43.2229 115.615 43.2633 114.756V112.096H50.6495L239.664 112.162H239.701V112.203C239.701 113.4 239.701 114.523 239.701 115.581C239.639 117.428 238.876 119.182 237.568 120.488C237.082 120.978 236.533 121.402 235.934 121.746C235.664 121.897 235.399 122.011 235.154 122.126C234.909 122.24 234.663 122.314 234.439 122.375L233.818 122.53L233.299 122.608C233.066 122.64 232.831 122.656 232.596 122.657L232.363 122.669Z" fill="#263238"/>
<path d="M123.151 112.182L125.586 116.055H159.862L162.121 112.182H123.151Z" fill="#263238"/>
<path d="M219.597 8.29315H62.2681C60.3548 8.29315 58.8037 9.84419 58.8037 11.7575V102.259C58.8037 104.172 60.3548 105.723 62.2681 105.723H219.597C221.51 105.723 223.061 104.172 223.061 102.259V11.7575C223.061 9.84419 221.51 8.29315 219.597 8.29315Z" fill="#455A64"/>
<path d="M219.523 105.723C219.968 105.714 220.408 105.626 220.822 105.462C221.332 105.259 221.787 104.938 222.15 104.526C222.653 103.957 222.96 103.241 223.024 102.484C223.049 99.0439 223.024 93.9577 223.024 87.413C223.024 74.3401 223.024 55.3843 222.988 31.9837C222.988 26.1336 222.988 20.0057 222.988 13.5999V12.4152C223.006 12.018 222.987 11.62 222.93 11.2264C222.792 10.4396 222.383 9.72584 221.774 9.20822C221.16 8.69045 220.384 8.40171 219.581 8.39116H206.953H163.02H62.3539C61.8116 8.39143 61.2771 8.51957 60.7937 8.76517C60.3104 9.01077 59.8917 9.36691 59.5718 9.80467C59.2504 10.2405 59.0401 10.7481 58.959 11.2835C58.9101 11.8268 58.8937 12.3725 58.9099 12.9177V58.3952C58.9099 66.8163 58.9099 75.0809 58.9099 83.1888V95.2078C58.9099 97.185 58.9099 99.1582 58.9099 101.115C58.9099 101.601 58.91 102.104 58.9345 102.569C59.0136 103.279 59.3118 103.946 59.7877 104.479C60.2636 105.011 60.8936 105.382 61.5899 105.539C62.059 105.622 62.536 105.651 63.0116 105.625H105.499H143.778L199.207 105.658L214.278 105.678H218.196H219.531H218.196H214.278L199.207 105.699L143.778 105.731H105.499H63.0116C62.5221 105.757 62.0313 105.725 61.5491 105.638C60.8131 105.47 60.1473 105.079 59.6438 104.517C59.1402 103.955 58.8238 103.25 58.7384 102.5C58.6934 101.993 58.7384 101.515 58.7139 101.025V95.2078C58.7139 91.245 58.7139 87.2387 58.7139 83.1888V58.3952C58.7139 49.9767 58.7139 41.4153 58.7139 32.7109V12.9381C58.6958 12.3779 58.7122 11.8172 58.7629 11.259C58.8497 10.6894 59.0741 10.1496 59.4165 9.6862C59.7556 9.22096 60.2 8.84258 60.7134 8.582C61.2267 8.32141 61.7945 8.18602 62.3702 8.18689H163.036H206.969H219.593C220.434 8.19863 221.245 8.5032 221.887 9.04822C222.528 9.59325 222.959 10.3447 223.106 11.1732C223.162 11.5792 223.181 11.9894 223.163 12.3988V13.5999C223.163 19.9839 223.163 26.1118 223.163 31.9837C223.163 55.3843 223.139 74.3237 223.131 87.413C223.131 93.9495 223.131 99.0398 223.094 102.488C223.037 103.145 222.797 103.774 222.402 104.303C222.008 104.832 221.473 105.24 220.859 105.482C220.547 105.604 220.22 105.681 219.887 105.711L219.523 105.723Z" fill="#263238"/>
<path d="M119.707 32.4086V33.3442H115.826V28.2988H119.634V29.2344H116.987V30.3415H119.323V31.2484H116.987V32.4127L119.707 32.4086Z" fill="white"/>
<path d="M124.512 31.1299V33.3441H123.388V31.3015C123.388 30.6764 123.102 30.3864 122.604 30.3864C122.105 30.3864 121.676 30.7173 121.676 31.4281V33.3441H120.557V29.4754H121.627V29.9329C121.793 29.7631 121.992 29.6299 122.213 29.5419C122.433 29.454 122.669 29.4132 122.906 29.4223C123.821 29.4141 124.512 29.9329 124.512 31.1299Z" fill="white"/>
<path d="M128.021 33.1563C127.749 33.3288 127.431 33.4143 127.11 33.4014C126.195 33.4014 125.664 32.9356 125.664 32.0124V30.4232H125.067V29.5612H125.664V28.6175H126.783V29.5612H127.747V30.4232H126.783V32.0001C126.774 32.0671 126.781 32.1353 126.802 32.1995C126.823 32.2638 126.858 32.3225 126.904 32.3715C126.951 32.4204 127.008 32.4583 127.071 32.4824C127.134 32.5065 127.202 32.5162 127.269 32.5108C127.431 32.5117 127.589 32.4601 127.719 32.3637L128.021 33.1563Z" fill="white"/>
<path d="M132.302 31.7264H129.377C129.437 31.9676 129.582 32.1791 129.785 32.3217C129.989 32.4644 130.237 32.5287 130.484 32.5026C130.663 32.5097 130.841 32.48 131.007 32.4153C131.174 32.3507 131.326 32.2524 131.453 32.1268L132.053 32.7763C131.848 32.9901 131.599 33.1567 131.323 33.2646C131.047 33.3726 130.751 33.4192 130.456 33.4014C129.116 33.4014 128.246 32.5598 128.246 31.4078C128.243 31.1392 128.294 30.8728 128.398 30.625C128.501 30.3771 128.654 30.153 128.847 29.9663C129.041 29.7797 129.27 29.6344 129.521 29.5395C129.772 29.4445 130.04 29.4019 130.309 29.4141C130.576 29.4001 130.844 29.4424 131.095 29.5384C131.345 29.6344 131.573 29.7818 131.763 29.9713C131.952 30.1608 132.1 30.388 132.197 30.6382C132.293 30.8885 132.336 31.1562 132.323 31.4241C132.323 31.5099 132.31 31.6324 132.302 31.7264ZM129.361 31.0687H131.269C131.241 30.838 131.128 30.6261 130.952 30.4748C130.776 30.3235 130.549 30.2438 130.317 30.2516C130.083 30.2399 129.854 30.318 129.676 30.4699C129.498 30.6219 129.386 30.8361 129.361 31.0687Z" fill="white"/>
<path d="M135.477 29.4141V30.4518C135.383 30.4518 135.309 30.4518 135.223 30.4518C135.08 30.4387 134.937 30.4581 134.802 30.5084C134.668 30.5588 134.547 30.6388 134.448 30.7425C134.349 30.8462 134.275 30.9709 134.231 31.1073C134.187 31.2437 134.174 31.3883 134.194 31.5303V33.3564H133.074V29.4877H134.145V29.9983C134.303 29.8001 134.506 29.6434 134.738 29.5416C134.97 29.4398 135.224 29.3961 135.477 29.4141Z" fill="white"/>
<path d="M140.706 31.5671V33.3523H139.541V31.5671L137.593 28.2988H138.818L140.166 30.5376L141.511 28.2988H142.654L140.706 31.5671Z" fill="white"/>
<path d="M142.352 31.4077C142.324 30.9811 142.425 30.556 142.642 30.1875C142.859 29.8191 143.181 29.5242 143.568 29.3413C143.954 29.1584 144.387 29.0959 144.809 29.1618C145.231 29.2277 145.624 29.4191 145.936 29.711C146.249 30.003 146.466 30.382 146.56 30.799C146.654 31.216 146.621 31.6517 146.465 32.0495C146.308 32.4474 146.036 32.789 145.683 33.03C145.329 33.2711 144.912 33.4004 144.485 33.4013C144.211 33.4204 143.937 33.383 143.679 33.2914C143.421 33.1998 143.184 33.056 142.984 32.8689C142.784 32.6818 142.625 32.4555 142.516 32.2041C142.407 31.9527 142.351 31.6816 142.352 31.4077ZM145.469 31.4077C145.453 31.2153 145.382 31.0317 145.263 30.8794C145.144 30.7271 144.984 30.6127 144.801 30.5502C144.619 30.4877 144.422 30.4798 144.235 30.5275C144.047 30.5752 143.878 30.6764 143.748 30.8187C143.617 30.9611 143.531 31.1384 143.5 31.3289C143.469 31.5194 143.494 31.7149 143.572 31.8914C143.65 32.068 143.778 32.2179 143.94 32.3228C144.102 32.4277 144.292 32.4831 144.485 32.4821C144.622 32.484 144.759 32.4567 144.885 32.4022C145.011 32.3476 145.125 32.2669 145.218 32.1655C145.311 32.064 145.381 31.9441 145.424 31.8135C145.468 31.6829 145.483 31.5446 145.469 31.4077Z" fill="white"/>
<path d="M151.254 29.4754V33.3442H150.188V32.8825C150.037 33.0506 149.851 33.184 149.644 33.2735C149.437 33.3631 149.212 33.4067 148.987 33.4014C148.014 33.4014 147.332 32.8539 147.332 31.661V29.4754H148.456V31.4935C148.456 32.1431 148.742 32.4291 149.24 32.4291C149.738 32.4291 150.131 32.0982 150.131 31.3873V29.4754H151.254Z" fill="white"/>
<path d="M154.698 29.4141V30.4518C154.604 30.4518 154.534 30.4518 154.449 30.4518C154.306 30.4379 154.162 30.4568 154.027 30.5068C153.892 30.5569 153.771 30.6369 153.672 30.7407C153.573 30.8446 153.498 30.9697 153.455 31.1065C153.411 31.2432 153.399 31.3882 153.419 31.5303V33.3564H152.296V29.4877H153.366V29.9983C153.524 29.8001 153.728 29.6434 153.96 29.5416C154.192 29.4398 154.445 29.3961 154.698 29.4141Z" fill="white"/>
<path d="M157.194 30.8276C157.194 29.3283 158.358 28.2212 159.952 28.2212C161.545 28.2212 162.705 29.3242 162.705 30.8276C162.705 32.331 161.533 33.4299 159.952 33.4299C158.371 33.4299 157.194 32.3228 157.194 30.8276ZM161.524 30.8276C161.518 30.517 161.42 30.2153 161.243 29.9602C161.065 29.7051 160.817 29.5081 160.528 29.3939C160.239 29.2796 159.923 29.2533 159.619 29.3181C159.315 29.3829 159.037 29.536 158.82 29.7582C158.603 29.9804 158.456 30.2618 158.398 30.567C158.341 30.8722 158.374 31.1877 158.495 31.4739C158.616 31.7601 158.819 32.0042 159.078 32.1755C159.337 32.3469 159.641 32.438 159.952 32.4372C160.163 32.4425 160.373 32.4042 160.568 32.3247C160.764 32.2452 160.941 32.1262 161.089 31.9752C161.236 31.8241 161.351 31.6442 161.426 31.4468C161.501 31.2493 161.535 31.0386 161.524 30.8276Z" fill="white"/>
<path d="M164.556 29.2589H162.942V28.2988H167.33V29.2507H165.72V33.336H164.556V29.2589Z" fill="white"/>
<path d="M172.326 30.1372C172.326 31.2566 171.484 31.9552 170.136 31.9552H169.123V33.3442H167.959V28.2988H170.136C171.484 28.2988 172.326 29.0056 172.326 30.1372ZM171.145 30.1372C171.145 29.5816 170.786 29.2589 170.071 29.2589H169.123V31.0074H170.071C170.786 31.0074 171.145 30.6806 171.145 30.1372Z" fill="white"/>
<g opacity="0.2">
<path d="M107.558 43.7331H99.2441C98.0099 43.7331 97.0094 44.7336 97.0094 45.9678V58.9141C97.0094 60.1482 98.0099 61.1487 99.2441 61.1487H107.558C108.792 61.1487 109.792 60.1482 109.792 58.9141V45.9678C109.792 44.7336 108.792 43.7331 107.558 43.7331Z" fill="white"/>
</g>
<g opacity="0.2">
<path d="M123.641 43.7331H115.328C114.094 43.7331 113.093 44.7336 113.093 45.9678V58.9141C113.093 60.1482 114.094 61.1487 115.328 61.1487H123.641C124.876 61.1487 125.876 60.1482 125.876 58.9141V45.9678C125.876 44.7336 124.876 43.7331 123.641 43.7331Z" fill="white"/>
</g>
<g opacity="0.2">
<path d="M139.729 43.7331H131.416C130.182 43.7331 129.181 44.7336 129.181 45.9678V58.9141C129.181 60.1482 130.182 61.1487 131.416 61.1487H139.729C140.964 61.1487 141.964 60.1482 141.964 58.9141V45.9678C141.964 44.7336 140.964 43.7331 139.729 43.7331Z" fill="white"/>
</g>
<g opacity="0.2">
<path d="M155.813 43.7331H147.5C146.265 43.7331 145.265 44.7336 145.265 45.9678V58.9141C145.265 60.1482 146.265 61.1487 147.5 61.1487H155.813C157.047 61.1487 158.048 60.1482 158.048 58.9141V45.9678C158.048 44.7336 157.047 43.7331 155.813 43.7331Z" fill="white"/>
</g>
<g opacity="0.2">
<path d="M171.897 43.7331H163.583C162.349 43.7331 161.349 44.7336 161.349 45.9678V58.9141C161.349 60.1482 162.349 61.1487 163.583 61.1487H171.897C173.131 61.1487 174.132 60.1482 174.132 58.9141V45.9678C174.132 44.7336 173.131 43.7331 171.897 43.7331Z" fill="white"/>
</g>
<g opacity="0.2">
<path d="M187.981 43.7331H179.667C178.433 43.7331 177.433 44.7336 177.433 45.9678V58.9141C177.433 60.1482 178.433 61.1487 179.667 61.1487H187.981C189.215 61.1487 190.215 60.1482 190.215 58.9141V45.9678C190.215 44.7336 189.215 43.7331 187.981 43.7331Z" fill="white"/>
</g>
<path d="M104.735 52.5124L106.267 53.3294L105.58 54.4815L104.036 53.5664L104.061 55.2659H102.753V53.5541L101.209 54.4815L100.535 53.3294L102.063 52.5124L100.535 51.6708L101.209 50.5188L102.753 51.4461V49.7344H104.073L104.048 51.4461L105.593 50.5188L106.279 51.6708L104.735 52.5124Z" fill="#263238"/>
<path d="M158.407 71.8399H128.822C125.882 71.8399 123.498 74.2232 123.498 77.163V78.2456C123.498 81.1855 125.882 83.5688 128.822 83.5688H158.407C161.347 83.5688 163.73 81.1855 163.73 78.2456V77.163C163.73 74.2232 161.347 71.8399 158.407 71.8399Z" fill="#18CEB5"/>
<path d="M132.372 77.4286C132.394 77.0727 132.52 76.7311 132.734 76.4461C132.948 76.161 133.241 75.9451 133.577 75.8251C133.913 75.7051 134.276 75.6862 134.623 75.7708C134.969 75.8554 135.283 76.0398 135.526 76.3011L135.035 76.7545C134.936 76.6347 134.811 76.5381 134.669 76.4718C134.528 76.4054 134.374 76.3709 134.218 76.3705C133.938 76.3705 133.669 76.482 133.47 76.6804C133.272 76.8789 133.16 77.148 133.16 77.4286C133.16 77.7092 133.272 77.9784 133.47 78.1768C133.669 78.3752 133.938 78.4867 134.218 78.4867C134.376 78.4837 134.532 78.4454 134.673 78.3748C134.814 78.3041 134.938 78.2028 135.035 78.0782L135.526 78.5316C135.284 78.7945 134.971 78.9805 134.625 79.0665C134.278 79.1526 133.915 79.1348 133.578 79.0155C133.242 78.8961 132.948 78.6805 132.734 78.3954C132.519 78.1103 132.393 77.7684 132.372 77.4123V77.4286Z" fill="white"/>
<path d="M135.709 77.8085C135.691 77.5282 135.758 77.249 135.901 77.0071C136.043 76.7651 136.255 76.5716 136.509 76.4517C136.763 76.3317 137.047 76.2908 137.325 76.3343C137.602 76.3778 137.86 76.5036 138.065 76.6955C138.27 76.8874 138.413 77.1365 138.475 77.4105C138.537 77.6845 138.515 77.9707 138.412 78.232C138.309 78.4933 138.13 78.7177 137.898 78.876C137.666 79.0344 137.392 79.1193 137.111 79.1199C136.931 79.1322 136.751 79.1075 136.581 79.0471C136.412 78.9867 136.256 78.8921 136.125 78.7691C135.993 78.6461 135.889 78.4973 135.817 78.332C135.746 78.1668 135.709 77.9886 135.709 77.8085ZM137.752 77.8085C137.742 77.6817 137.695 77.5606 137.616 77.4602C137.538 77.3597 137.432 77.2843 137.312 77.2431C137.192 77.202 137.062 77.1969 136.938 77.2284C136.815 77.26 136.704 77.3269 136.618 77.4208C136.532 77.5148 136.476 77.6318 136.455 77.7575C136.435 77.8831 136.452 78.0119 136.504 78.1281C136.556 78.2444 136.64 78.3429 136.747 78.4117C136.855 78.4804 136.979 78.5164 137.107 78.5153C137.197 78.5169 137.287 78.4993 137.371 78.4635C137.454 78.4278 137.529 78.3748 137.59 78.308C137.652 78.2412 137.698 78.1621 137.727 78.076C137.755 77.9899 137.765 77.8988 137.756 77.8085H137.752Z" fill="white"/>
<path d="M141.592 77.6247V79.0791H140.857V77.7309C140.857 77.3224 140.665 77.1304 140.342 77.1304C140.019 77.1304 139.729 77.3469 139.729 77.8167V79.0709H138.994V76.5298H139.697V76.8281C139.806 76.7169 139.937 76.6297 140.082 76.572C140.227 76.5143 140.382 76.4874 140.538 76.4931C140.686 76.4832 140.834 76.5063 140.972 76.5608C141.11 76.6154 141.233 76.6999 141.334 76.8083C141.435 76.9166 141.511 77.0462 141.555 77.1874C141.6 77.3286 141.613 77.478 141.592 77.6247Z" fill="white"/>
<path d="M143.896 78.9565C143.718 79.0711 143.508 79.1282 143.296 79.1199C143.17 79.1373 143.042 79.1259 142.921 79.0865C142.801 79.0472 142.691 78.981 142.599 78.8928C142.508 78.8047 142.438 78.6969 142.395 78.5778C142.351 78.4586 142.335 78.331 142.348 78.2048V77.1631H141.94V76.5952H142.348V75.9783H143.083V76.5952H143.717V77.1631H143.083V78.1966C143.078 78.2406 143.082 78.2852 143.096 78.3272C143.11 78.3693 143.133 78.4078 143.163 78.4398C143.194 78.4719 143.231 78.4968 143.272 78.5127C143.314 78.5285 143.358 78.535 143.402 78.5316C143.509 78.5326 143.613 78.4997 143.7 78.4377L143.896 78.9565Z" fill="white"/>
<path d="M144.223 75.774C144.223 75.716 144.235 75.6585 144.258 75.6055C144.282 75.5524 144.316 75.505 144.36 75.4663C144.403 75.4277 144.454 75.3987 144.509 75.3813C144.565 75.3639 144.623 75.3585 144.681 75.3655C144.738 75.3585 144.797 75.3639 144.852 75.3813C144.908 75.3987 144.959 75.4277 145.002 75.4663C145.045 75.505 145.08 75.5524 145.103 75.6055C145.127 75.6585 145.139 75.716 145.138 75.774C145.123 75.8849 145.069 75.9865 144.985 76.0602C144.901 76.1338 144.793 76.1744 144.681 76.1744C144.569 76.1744 144.461 76.1338 144.377 76.0602C144.293 75.9865 144.238 75.8849 144.223 75.774ZM144.313 76.538H145.048V79.079H144.313V76.538Z" fill="white"/>
<path d="M148.333 77.6247V79.0791H147.598V77.7309C147.598 77.3224 147.406 77.1304 147.083 77.1304C146.76 77.1304 146.47 77.3469 146.47 77.8167V79.0709H145.735V76.5299H146.437V76.8281C146.548 76.7186 146.681 76.6333 146.826 76.5778C146.972 76.5222 147.127 76.4975 147.283 76.5053C147.429 76.4964 147.576 76.5198 147.712 76.5739C147.848 76.628 147.971 76.7115 148.071 76.8184C148.171 76.9252 148.247 77.0529 148.292 77.1923C148.337 77.3317 148.351 77.4793 148.333 77.6247Z" fill="white"/>
<path d="M151.56 76.538V79.0791H150.862V78.7768C150.763 78.8876 150.641 78.9757 150.505 79.035C150.369 79.0942 150.222 79.1232 150.073 79.1199C149.922 79.1322 149.771 79.1106 149.629 79.0566C149.488 79.0026 149.361 78.9177 149.256 78.8079C149.152 78.6982 149.074 78.5666 149.027 78.4226C148.98 78.2786 148.967 78.1261 148.987 77.9761V76.538H149.734V77.8657C149.734 78.2743 149.922 78.4826 150.249 78.4826C150.576 78.4826 150.837 78.262 150.837 77.7963V76.538H151.56Z" fill="white"/>
<path d="M154.722 78.0169H152.798C152.837 78.1757 152.932 78.3151 153.066 78.409C153.2 78.5029 153.363 78.5451 153.525 78.5275C153.643 78.5318 153.76 78.5122 153.869 78.4701C153.979 78.428 154.078 78.3641 154.163 78.2824L154.571 78.691C154.372 78.8822 154.123 79.0141 153.853 79.0717C153.583 79.1292 153.302 79.1102 153.042 79.0168C152.783 78.9234 152.554 78.7592 152.382 78.5429C152.211 78.3265 152.103 78.0665 152.071 77.7922C152.072 77.619 152.108 77.4477 152.176 77.2885C152.244 77.1294 152.344 76.9855 152.469 76.8655C152.594 76.7455 152.742 76.6518 152.903 76.59C153.065 76.5281 153.238 76.4993 153.411 76.5053C153.587 76.4959 153.763 76.5236 153.927 76.5866C154.092 76.6495 154.242 76.7463 154.366 76.8707C154.491 76.9951 154.588 77.1443 154.652 77.3087C154.715 77.473 154.743 77.6489 154.735 77.8249C154.735 77.878 154.726 77.9556 154.722 78.0169ZM152.79 77.6084H154.04C154.022 77.4575 153.947 77.319 153.831 77.2206C153.716 77.1222 153.567 77.071 153.415 77.0773C153.266 77.0686 153.119 77.1162 153.003 77.2108C152.887 77.3054 152.811 77.44 152.79 77.5879V77.6084Z" fill="white"/>
<path d="M144.619 4.23643C144.619 4.59374 144.513 4.94301 144.315 5.24005C144.116 5.53708 143.834 5.76852 143.504 5.90507C143.174 6.04161 142.81 6.07714 142.46 6.00713C142.11 5.93712 141.788 5.76474 141.535 5.5118C141.283 5.25886 141.111 4.93673 141.042 4.58619C140.973 4.23565 141.009 3.87246 141.147 3.54258C141.284 3.21271 141.516 2.93098 141.814 2.73306C142.111 2.53514 142.461 2.42992 142.818 2.43073C143.055 2.43073 143.289 2.47746 143.508 2.56826C143.727 2.65905 143.926 2.79213 144.093 2.95985C144.261 3.12758 144.393 3.32667 144.483 3.54573C144.574 3.76478 144.62 3.99949 144.619 4.23643Z" fill="#263238"/>
<path d="M210.887 14.18V12.4479C210.885 12.4012 210.892 12.3545 210.908 12.3106C210.924 12.2666 210.948 12.2262 210.979 12.1917C211.011 12.1571 211.049 12.1291 211.091 12.1093C211.134 12.0895 211.179 12.0782 211.226 12.0761H213.828C213.875 12.0782 213.921 12.0895 213.963 12.1093C214.006 12.1291 214.044 12.1571 214.075 12.1917C214.107 12.2262 214.131 12.2666 214.147 12.3106C214.163 12.3545 214.17 12.4012 214.168 12.4479V14.18C214.17 14.2267 214.163 14.2734 214.147 14.3173C214.131 14.3613 214.107 14.4017 214.075 14.4362C214.044 14.4708 214.006 14.4988 213.963 14.5186C213.921 14.5384 213.875 14.5497 213.828 14.5518H211.226C211.179 14.5497 211.134 14.5384 211.091 14.5186C211.049 14.4988 211.011 14.4708 210.979 14.4362C210.948 14.4017 210.924 14.3613 210.908 14.3173C210.892 14.2734 210.885 14.2267 210.887 14.18Z" fill="#263238"/>
<path d="M215.822 15.1401H210.683C210.561 15.1391 210.445 15.0899 210.359 15.0035C210.273 14.917 210.225 14.8002 210.225 14.6785V11.8474C210.225 11.7873 210.237 11.7278 210.26 11.6723C210.283 11.6168 210.317 11.5663 210.359 11.5238C210.402 11.4814 210.452 11.4477 210.508 11.4247C210.563 11.4017 210.623 11.3898 210.683 11.3898H215.749C215.857 11.3898 215.961 11.4329 216.037 11.5095C216.114 11.5861 216.157 11.69 216.157 11.7984V12.3213C216.157 12.3386 216.164 12.3552 216.176 12.3675C216.188 12.3798 216.205 12.3866 216.222 12.3866H216.778C216.851 12.3866 216.92 12.4155 216.972 12.4668C217.023 12.5181 217.052 12.5878 217.052 12.6604V13.5918C217.052 13.6817 217.016 13.768 216.952 13.8316C216.889 13.8952 216.803 13.9309 216.713 13.9309H216.304C216.286 13.9309 216.268 13.9382 216.255 13.9512C216.242 13.9643 216.235 13.9819 216.235 14.0003V14.7234C216.236 14.7781 216.226 14.8325 216.206 14.8832C216.185 14.934 216.155 14.9802 216.117 15.0191C216.078 15.0579 216.032 15.0887 215.982 15.1095C215.931 15.1303 215.877 15.1407 215.822 15.1401ZM210.683 11.5941C210.616 11.5941 210.551 11.6208 210.504 11.6683C210.456 11.7158 210.43 11.7802 210.43 11.8474V14.6785C210.43 14.7461 210.456 14.8109 210.503 14.8591C210.551 14.9072 210.615 14.9348 210.683 14.9359H215.822C215.879 14.9348 215.933 14.9115 215.973 14.871C216.012 14.8305 216.035 14.7761 216.035 14.7193V14.0003C216.035 13.9277 216.063 13.8581 216.115 13.8068C216.166 13.7555 216.236 13.7266 216.308 13.7266H216.717C216.753 13.7266 216.787 13.7124 216.812 13.6871C216.837 13.6619 216.852 13.6276 216.852 13.5918V12.6685C216.851 12.6504 216.843 12.6333 216.83 12.6205C216.817 12.6077 216.8 12.6001 216.782 12.5991H216.227C216.155 12.598 216.087 12.5693 216.037 12.5189C215.987 12.4686 215.958 12.4006 215.957 12.3295V11.8065C215.957 11.7783 215.951 11.7503 215.94 11.7243C215.929 11.6982 215.913 11.6746 215.893 11.6549C215.873 11.6351 215.849 11.6195 215.823 11.6091C215.797 11.5986 215.769 11.5936 215.74 11.5941H210.683Z" fill="#263238"/>
<path d="M54.0035 63.3548C53.7833 62.6968 53.3686 62.1211 52.8142 61.7039C52.2599 61.2866 51.5919 61.0475 50.8987 61.018C51.2582 60.0089 50.5678 58.8446 49.5873 58.4197C49.0843 58.2378 48.5486 58.1638 48.0151 58.2025C47.4815 58.2412 46.9621 58.3918 46.4907 58.6444C45.8084 58.9672 45.1711 59.4166 44.448 59.5841C43.4798 59.8047 42.4789 59.4983 41.4902 59.4656C40.4756 59.4463 39.4753 59.7062 38.5984 60.2171C37.7216 60.7279 37.0021 61.4699 36.5184 62.3621C36.1875 62.9871 35.9833 63.6775 35.6197 64.2862C35.3255 64.7724 34.9415 65.1973 34.6515 65.6875C34.2465 66.4052 34.0622 67.2264 34.1218 68.0483C34.1814 68.8702 34.4822 69.6562 34.9865 70.308L48.9132 67.1092C49.4856 67.5051 50.1673 67.7124 50.8632 67.7022C51.5591 67.6919 52.2344 67.4647 52.795 67.0522C53.3555 66.6397 53.7732 66.0624 53.9899 65.4011C54.2065 64.7397 54.2113 64.0272 54.0035 63.363V63.3548Z" fill="#263238"/>
<path d="M86.0853 114.633L72.657 113.302L71.8808 120.275L87.0454 119.748L86.0853 114.633Z" fill="#FFBF9D"/>
<path d="M96.2863 118.719C96.2008 118.84 96.0816 118.933 95.9436 118.986C95.8056 119.04 95.6549 119.052 95.5101 119.021C95.4479 119.004 95.3876 118.981 95.3304 118.952C94.9218 118.751 95.1057 117.898 95.1057 117.898L93.1366 117.252C93.1366 117.252 90.2442 118.527 89.133 119.503C88.0218 120.479 85.783 119.193 85.783 119.193L85.636 114.756L89.8847 111.982C89.8847 111.982 89.6232 112.15 89.9786 111.573C90.334 110.997 91.4657 111.406 91.4657 111.406C91.6985 111.124 92.4788 111.132 92.4788 111.132L95.6776 112.023C96.0036 112.113 96.305 112.276 96.5596 112.499C96.8142 112.721 97.0154 112.999 97.1483 113.31L98.1819 115.708C98.1819 115.708 98.664 117.395 98.4883 117.75C98.4138 117.893 98.2894 118.004 98.1388 118.061C97.9882 118.118 97.8218 118.118 97.6712 118.061C97.6712 118.061 97.3444 119.066 97.0707 119.062C96.7941 119.004 96.5309 118.894 96.2945 118.739L96.2863 118.719Z" fill="#FFBF9D"/>
<path d="M89.9541 118.923C90.0311 118.89 90.105 118.851 90.1747 118.805L90.7875 118.453C91.557 118.027 92.351 117.646 93.1652 117.313H93.1162L95.0812 117.975L95.024 117.877C94.9937 118.043 94.98 118.211 94.9831 118.38C94.9814 118.564 95.034 118.744 95.1343 118.898C95.1992 118.977 95.2858 119.036 95.3835 119.066C95.4724 119.105 95.5683 119.126 95.6654 119.127C95.8658 119.128 96.0598 119.057 96.2128 118.927C96.2512 118.895 96.2867 118.859 96.319 118.821L96.3435 118.792L96.2169 118.817L96.2782 118.854C96.3571 118.903 96.439 118.948 96.5233 118.988C96.6089 119.032 96.6977 119.069 96.7888 119.099C96.8364 119.117 96.8857 119.131 96.9359 119.14C96.9986 119.158 97.0652 119.158 97.1279 119.14C97.2281 119.084 97.3114 119.002 97.3689 118.903C97.4221 118.819 97.4699 118.731 97.5119 118.641C97.5963 118.462 97.67 118.278 97.7325 118.09L97.6018 118.151C97.7336 118.203 97.8772 118.218 98.0169 118.194C98.1566 118.17 98.2871 118.109 98.3943 118.016C98.5051 117.916 98.5773 117.78 98.5986 117.632C98.6134 117.496 98.6134 117.359 98.5986 117.224C98.5265 116.703 98.4173 116.188 98.2718 115.683L97.7203 114.405L97.373 113.588C97.2659 113.308 97.1289 113.041 96.9645 112.791C96.7901 112.548 96.5676 112.344 96.3109 112.19C96.0553 112.049 95.7799 111.947 95.4938 111.888L92.4748 111.071H92.4502C92.2623 111.073 92.075 111.092 91.8906 111.128C91.6936 111.154 91.5103 111.243 91.3676 111.382H91.4861C91.3324 111.279 91.156 111.216 90.9723 111.197C90.7886 111.179 90.6031 111.206 90.4321 111.275C90.1281 111.43 89.8954 111.697 89.7826 112.019L89.8152 111.978L86.8861 113.878L86.0976 114.405C86.0031 114.463 85.913 114.529 85.828 114.601C85.931 114.557 86.0295 114.504 86.1221 114.441L86.9392 113.951L89.901 112.113V112.088C90.0021 111.809 90.2049 111.579 90.4689 111.443C90.6146 111.387 90.7716 111.367 90.9267 111.385C91.0817 111.403 91.2301 111.458 91.3595 111.545L91.4248 111.586L91.4779 111.529C91.5926 111.427 91.7347 111.362 91.8865 111.341C92.0574 111.308 92.2312 111.291 92.4053 111.292L95.4162 112.141C95.6808 112.197 95.9356 112.292 96.172 112.423C96.4035 112.564 96.6037 112.75 96.7602 112.971C96.9137 113.208 97.0398 113.461 97.1361 113.726C97.2546 113.996 97.3689 114.266 97.4874 114.544L98.0389 115.822C98.1822 116.316 98.2901 116.82 98.3617 117.33C98.3737 117.448 98.3737 117.567 98.3617 117.685C98.3472 117.786 98.2981 117.878 98.2228 117.947C98.143 118.014 98.0467 118.058 97.944 118.075C97.8413 118.092 97.7359 118.082 97.6386 118.045L97.5405 118.012L97.5078 118.106C97.4512 118.286 97.3815 118.463 97.2995 118.633C97.2425 118.79 97.147 118.931 97.0217 119.041C96.9932 119.045 96.9644 119.045 96.9359 119.041L96.8174 119.009C96.7357 118.98 96.654 118.943 96.5723 118.907C96.4926 118.868 96.4148 118.826 96.3394 118.78L96.2823 118.747L96.1556 118.772V118.796C96.129 118.826 96.1004 118.853 96.0698 118.878C95.9559 118.976 95.8117 119.033 95.6613 119.037C95.5855 119.037 95.5106 119.022 95.4407 118.992C95.3726 118.976 95.312 118.937 95.2691 118.882C95.1343 118.611 95.1024 118.301 95.1792 118.008V117.93L95.1098 117.91L93.1407 117.273H93.1162H93.0916C92.2784 117.619 91.4895 118.021 90.7303 118.474C90.4648 118.633 90.2646 118.764 90.1298 118.858C90.0698 118.875 90.0111 118.897 89.9541 118.923Z" fill="#FF9A6C"/>
<path d="M91.8374 112.632C92.1469 112.834 92.4822 112.993 92.8343 113.105C93.6899 113.428 94.584 113.636 95.4938 113.726L95.3957 113.637C95.4284 113.808 95.457 113.984 95.502 114.164C95.7338 115.177 96.1582 116.137 96.7521 116.991C96.9311 117.246 97.1277 117.489 97.3403 117.718C97.4915 117.881 97.5855 117.959 97.5977 117.951C97.61 117.942 97.2954 117.563 96.8787 116.905C96.3364 116.047 95.9427 115.104 95.7144 114.115C95.6735 113.943 95.6409 113.767 95.6123 113.604V113.518H95.5306C94.6368 113.431 93.7549 113.249 92.8996 112.975C92.5525 112.84 92.1978 112.725 91.8374 112.632Z" fill="#FF9A6C"/>
<path d="M94.6318 115.017C94.7251 116.388 95.3459 117.669 96.3639 118.592C96.417 118.547 95.8206 117.869 95.3467 116.88C94.8728 115.892 94.6971 115.005 94.6318 115.017Z" fill="#FF9A6C"/>
<path d="M85.3459 117.767C85.3459 117.767 85.3745 117.799 85.4399 117.844C85.5371 117.909 85.638 117.968 85.7422 118.02C86.138 118.213 86.5659 118.332 87.0046 118.371C87.6784 118.433 88.3556 118.301 88.9574 117.991C89.7248 117.598 90.3325 116.952 90.6773 116.161L90.5465 116.223C91.2999 116.494 92.0882 116.656 92.8874 116.705C93.184 116.721 93.4814 116.721 93.778 116.705C94.0753 116.705 94.3707 116.657 94.6523 116.562C94.8097 116.509 94.9421 116.4 95.024 116.255C95.0586 116.181 95.0783 116.1 95.0818 116.018C95.0853 115.936 95.0726 115.854 95.0444 115.777C94.9865 115.625 94.8704 115.501 94.7217 115.434L94.3622 115.279C93.4103 114.87 92.532 114.572 91.7925 114.331C91.0531 114.09 90.4403 113.923 90.0195 113.816C89.8029 113.748 89.5797 113.703 89.3536 113.682C89.5629 113.767 89.777 113.839 89.995 113.898C90.4035 114.029 91.0082 114.221 91.7435 114.478C92.4789 114.736 93.3409 115.062 94.2846 115.467L94.64 115.622C94.736 115.667 94.8107 115.748 94.8483 115.847C94.8691 115.897 94.8798 115.95 94.8798 116.004C94.8798 116.058 94.8691 116.111 94.8483 116.161C94.7882 116.26 94.6936 116.333 94.5828 116.366C94.3191 116.451 94.043 116.493 93.7657 116.488C93.4798 116.488 93.1897 116.488 92.8956 116.488C92.1163 116.44 91.3476 116.283 90.6119 116.022L90.5179 115.99L90.4812 116.08C90.1531 116.835 89.5764 117.455 88.847 117.836C88.2761 118.139 87.6335 118.28 86.9882 118.245C86.5668 118.218 86.1527 118.121 85.7626 117.959C85.493 117.853 85.3541 117.767 85.3459 117.767Z" fill="#FF9A6C"/>
<path d="M42.5279 97.3771C40.9345 97.3418 39.4184 96.6834 38.3048 95.5431C37.1913 94.4029 36.569 92.8716 36.5716 91.2778L36.3183 71.0515C36.0813 65.6221 38.9574 60.9526 44.2397 60.8627H44.7299C49.6527 61.0711 53.5909 65.1278 53.7829 70.1895C53.9627 74.8998 54.1547 79.4467 54.024 81.9633C53.7502 87.1761 48.5987 87.6827 48.5987 87.6827C48.5987 87.6827 48.5987 89.6232 48.5987 91.1552C48.6122 91.9609 48.4657 92.7613 48.1677 93.51C47.8697 94.2587 47.4261 94.9408 46.8626 95.5169C46.2991 96.0929 45.6269 96.5514 44.8849 96.8658C44.143 97.1802 43.346 97.3443 42.5402 97.3485L42.5279 97.3771Z" fill="#FFBF9D"/>
<path d="M48.5987 87.744C46.2493 87.6367 43.9834 86.8411 42.0826 85.4562C42.0826 85.4562 43.5125 89.4435 48.5864 89.1861L48.5987 87.744Z" fill="#FF9A6C"/>
<path d="M51.916 74.8426C51.9108 75.0335 51.8324 75.215 51.697 75.3496C51.5616 75.4842 51.3796 75.5616 51.1888 75.5657C51.0951 75.569 51.0018 75.5535 50.9142 75.5202C50.8267 75.4868 50.7467 75.4363 50.6789 75.3716C50.6112 75.3069 50.557 75.2293 50.5197 75.1434C50.4824 75.0574 50.4626 74.9649 50.4616 74.8712C50.4637 74.6794 50.5412 74.4961 50.6772 74.3608C50.8132 74.2256 50.9969 74.1492 51.1888 74.1481C51.2823 74.1454 51.3754 74.1613 51.4627 74.1948C51.55 74.2283 51.6298 74.2789 51.6974 74.3435C51.7651 74.4081 51.8192 74.4855 51.8567 74.5711C51.8942 74.6568 51.9144 74.7491 51.916 74.8426Z" fill="#263238"/>
<path d="M52.6145 72.465C52.5206 72.5589 51.9895 72.1177 51.2092 72.0891C50.4289 72.0605 49.8447 72.4323 49.763 72.3302C49.6813 72.228 49.8243 72.1136 50.0776 71.9216C50.4231 71.6973 50.8304 71.5873 51.2419 71.6071C51.6469 71.6185 52.0371 71.7619 52.3531 72.0156C52.5859 72.2444 52.6595 72.42 52.6145 72.465Z" fill="#263238"/>
<path d="M44.8443 74.8426C44.8411 75.0341 44.7633 75.2168 44.6275 75.3519C44.4917 75.4869 44.3086 75.5636 44.1171 75.5657C44.0236 75.5673 43.9307 75.5504 43.8438 75.5159C43.7569 75.4813 43.6777 75.4299 43.6109 75.3645C43.544 75.2992 43.4907 75.2212 43.4542 75.1351C43.4177 75.049 43.3986 74.9566 43.3981 74.8631C43.4013 74.6716 43.479 74.4889 43.6148 74.3538C43.7506 74.2188 43.9338 74.1421 44.1253 74.14C44.2189 74.1378 44.312 74.1543 44.3992 74.1887C44.4863 74.223 44.5657 74.2744 44.6327 74.3399C44.6997 74.4054 44.7529 74.4836 44.7893 74.5699C44.8256 74.6562 44.8443 74.749 44.8443 74.8426Z" fill="#263238"/>
<path d="M44.975 72.3261C44.881 72.42 44.3459 71.9788 43.5697 71.9502C42.7935 71.9216 42.2052 72.2934 42.1235 72.1912C42.0418 72.0891 42.1807 71.9747 42.438 71.7827C42.7836 71.5584 43.1909 71.4484 43.6023 71.4681C44.0071 71.481 44.3968 71.6243 44.7135 71.8767C44.9423 72.1055 45.0199 72.2852 44.975 72.3261Z" fill="#263238"/>
<path d="M47.5202 78.6011C47.9357 78.4873 48.364 78.4269 48.7948 78.4214C48.995 78.4214 49.2033 78.3764 49.2238 78.2375C49.248 78.0269 49.2097 77.8137 49.1134 77.6247C48.9459 77.1222 48.7703 76.5952 48.5905 76.0437C47.8593 73.7886 47.3649 71.9584 47.4303 71.9135C47.4957 71.8685 48.182 73.6824 48.9092 75.9375C49.0848 76.4931 49.2523 77.0201 49.4076 77.5267C49.5276 77.7819 49.5536 78.0712 49.4811 78.3437C49.4498 78.4134 49.4029 78.475 49.3442 78.5239C49.2854 78.5727 49.2163 78.6075 49.142 78.6256C49.0311 78.6523 48.9171 78.6647 48.803 78.6624C48.3745 78.6965 47.9434 78.6759 47.5202 78.6011Z" fill="#263238"/>
<path d="M45.3264 69.834C45.212 70.0342 44.4644 69.785 43.5452 69.7278C42.626 69.6706 41.8539 69.7809 41.7681 69.5644C41.7313 69.4623 41.8947 69.2866 42.2256 69.1559C42.6597 68.9712 43.1323 68.8954 43.6024 68.9353C44.0727 68.9622 44.5296 69.1023 44.9342 69.3438C45.2406 69.5358 45.3754 69.736 45.3264 69.834Z" fill="#263238"/>
<path d="M52.7452 70.1118C52.5777 70.2916 51.9282 70.0832 51.1847 70.0546C50.4411 70.026 49.7752 70.1404 49.6323 69.9443C49.5669 69.8504 49.6731 69.6706 49.9591 69.5072C50.3535 69.3096 50.7926 69.2182 51.2332 69.2418C51.6737 69.2654 52.1005 69.4034 52.4715 69.642C52.733 69.834 52.8188 70.026 52.7452 70.1118Z" fill="#263238"/>
<path d="M36.5716 74.9284C36.4858 74.8875 33.1317 73.7232 33.0991 77.2897C33.0664 80.8562 36.5552 80.1494 36.5634 80.0554C36.5716 79.9615 36.5716 74.9284 36.5716 74.9284Z" fill="#FFBF9D"/>
<path d="M35.5217 78.691C35.5217 78.691 35.4604 78.7359 35.3582 78.7809C35.2864 78.8109 35.2094 78.8263 35.1315 78.8263C35.0537 78.8263 34.9766 78.8109 34.9048 78.7809C34.5412 78.6379 34.2348 78.0373 34.2266 77.3919C34.2183 77.087 34.2783 76.784 34.4023 76.5054C34.4347 76.3953 34.4932 76.2947 34.5729 76.2122C34.6525 76.1297 34.751 76.0677 34.8598 76.0315C34.9303 76.013 35.0051 76.0206 35.0704 76.0529C35.1357 76.0852 35.1871 76.1399 35.2153 76.2071C35.2643 76.3052 35.2398 76.3787 35.2602 76.3828C35.2806 76.3869 35.3337 76.3256 35.3051 76.1785C35.2893 76.0896 35.2413 76.0096 35.1703 75.9538C35.1253 75.9151 35.0724 75.8866 35.0152 75.8703C34.9581 75.8541 34.8981 75.8505 34.8394 75.8599C34.6955 75.8881 34.5612 75.9529 34.4496 76.048C34.3379 76.1432 34.2527 76.2655 34.2021 76.4032C34.0522 76.7123 33.978 77.0525 33.9856 77.3959C33.9856 78.115 34.3533 78.7931 34.8517 78.9484C34.9444 78.9763 35.0422 78.9827 35.1378 78.9671C35.2334 78.9515 35.3241 78.9144 35.4032 78.8585C35.5135 78.7768 35.5339 78.6992 35.5217 78.691Z" fill="#FF9A6C"/>
<path d="M39.0636 66.0224C39.1446 65.5663 39.3488 65.1409 39.6541 64.7924C39.9594 64.4439 40.3542 64.1855 40.7958 64.0452C41.5568 63.7891 42.3822 63.7992 43.1367 64.0738C45.0935 64.7846 48.4475 65.8509 49.3014 65.1686C50.5515 64.1882 50.8538 63.5345 50.8538 63.5345L51.5442 64.2862C52.1039 63.9675 50.4207 62.0965 49.0399 61.451C46.9564 60.4787 43.774 59.8782 41.8498 60.4378C39.5334 61.1119 37.6092 62.2926 36.4449 64.4619C35.3235 66.6764 34.7957 69.1439 34.913 71.6234C34.913 72.3792 34.7945 74.5444 35.5217 74.7119C36.0895 74.8385 36.8126 75.0918 36.7718 76.1785C36.7434 76.5752 36.8726 76.9671 37.1313 77.2693C37.7645 77.9638 38.5407 77.3101 38.9002 76.6565C39.6641 75.2593 39.7499 73.5925 39.8153 71.9911C39.9241 70.8551 39.851 69.7091 39.5988 68.5962C39.3352 67.8881 39.1476 67.1541 39.0391 66.4065C39.0339 66.278 39.0421 66.1493 39.0636 66.0224Z" fill="#263238"/>
<path d="M47.655 80.5293C47.6754 80.5825 47.516 80.7173 47.1933 80.7867C46.7652 80.872 46.3208 80.8025 45.9391 80.5906C45.5562 80.3826 45.2563 80.0495 45.0894 79.6469C44.9668 79.3405 44.9873 79.1363 45.0444 79.1199C45.1016 79.1036 45.4244 79.7981 46.1556 80.1943C46.8869 80.5906 47.6223 80.4109 47.655 80.5293Z" fill="#263238"/>
<path d="M51.2786 128.123L34.6842 124.471L24.0174 98.043C24.0174 98.043 9.76385 101.205 7.41481 109.188C5.37216 116.071 1.18065 146.499 10.7239 165.254C11.9399 167.617 13.7853 169.598 16.0563 170.978C18.3272 172.357 20.9353 173.083 23.5926 173.074H96.2169C100.645 173.074 104.918 171.443 108.219 168.491C111.52 165.54 113.617 161.476 114.11 157.076C114.519 153.399 114.805 149.914 114.748 147.643L103.088 138.696L51.2786 128.123Z" fill="#455A64"/>
<g opacity="0.3">
<path d="M95.645 137.315C100.756 143.99 106.973 149.979 114.409 153.909L114.764 144.848L101.029 135.072L95.645 137.315Z" fill="black"/>
</g>
<path d="M40.8325 92.9037C40.8325 93.3858 44.6073 94.9463 46.3109 94.26C48.9092 93.2223 48.5864 91.1838 48.5864 91.1838L50.0285 92.7035L64.4782 114.723L75.2185 121.811L58.0275 127.257L40.0032 106.553L40.8325 92.9037Z" fill="#F5F5F5"/>
<path d="M36.2774 85.5134L35.8975 86.2243L34.1817 89.4231L27.0446 93.9741L41.7231 111.422L48.4189 127.257L64.4741 132.282C64.4741 132.282 56.8346 120.537 54.4611 114.531C52.0875 108.526 51.8465 108.812 49.6813 104.408C48.2094 101.305 46.9004 98.1281 45.7594 94.8892L36.2774 85.5134Z" fill="#10C8B0"/>
<path d="M70.6674 116.95L73.8172 119.887L74.7078 121.701L62.9993 116.255L54.5469 104.408C54.5469 104.408 51.536 97.7284 50.5024 95.3344C49.4116 92.8179 48.5987 91.3921 48.5987 91.3921V89.4067L52.8596 93.255L56.4179 94.3131L62.3661 103.709L70.6674 116.95Z" fill="#10C8B0"/>
<path d="M67.0601 105.87C67.0601 105.87 65.6384 102.839 64.4782 100.319C61.8636 94.64 55.6989 94.1007 55.6989 94.1007L62.5132 112.999L70.8595 118.919C70.8595 118.919 73.2371 119.736 73.5353 118.919C73.5353 118.919 75.2716 112.652 75.2185 112.628C75.1654 112.603 69.2784 110.842 69.2784 110.842L66.909 105.531" fill="#18CEB5"/>
<path d="M79.6142 99.9713L71.5049 113.481L79.9982 113.232L87.4866 100.715C87.5524 100.605 87.5879 100.48 87.5894 100.352C87.591 100.224 87.5585 100.098 87.4954 99.9863C87.4322 99.875 87.3406 99.7824 87.23 99.718C87.1194 99.6536 86.9936 99.6198 86.8656 99.6199H80.2352C80.1101 99.6198 79.9872 99.6521 79.8784 99.7137C79.7695 99.7753 79.6785 99.864 79.6142 99.9713Z" fill="#263238"/>
<path d="M48.4189 115.25L68.7188 112.836L72.13 106.859L74.8018 105.392C75.0233 105.27 75.2752 105.213 75.5278 105.229C75.7804 105.245 76.0232 105.333 76.2276 105.482L76.4808 105.666L78.4622 105.417C78.7999 105.373 79.1428 105.44 79.4386 105.609L80.8439 106.426C80.9452 106.485 81.0293 106.57 81.0881 106.672C81.1468 106.773 81.1781 106.889 81.1789 107.006C81.1788 107.105 81.1569 107.203 81.1149 107.292C81.0728 107.381 81.0116 107.46 80.9356 107.524C80.8596 107.587 80.7706 107.632 80.675 107.657C80.5794 107.682 80.4795 107.686 80.3823 107.668L79.0178 107.419L76.9261 108.101C76.9261 108.101 78.2743 108.244 78.4459 109.265C78.6174 110.287 77.9352 110.311 77.9352 110.311C77.9352 110.311 79.3528 111.128 78.3437 112.354C78.3437 112.354 79.5285 113.142 78.2007 114.637C77.3061 115.651 70.8472 118.952 70.8472 118.952L48.4189 127.257V115.25Z" fill="#FFBF9D"/>
<path d="M78.311 112.346C78.311 112.346 78.4622 112.346 78.6419 112.529C78.7588 112.665 78.8398 112.827 78.8777 113.002C78.9155 113.177 78.9089 113.359 78.8585 113.53C78.6808 114.016 78.3795 114.447 77.9842 114.78C77.5432 115.212 77.0662 115.606 76.5584 115.957C75.6307 116.579 74.6507 117.119 73.6293 117.571C73.2201 117.783 72.792 117.957 72.3506 118.09C72.744 117.844 73.1535 117.626 73.5762 117.436C74.566 116.95 75.5214 116.397 76.4359 115.781C76.9364 115.438 77.409 115.055 77.8494 114.637C78.2285 114.333 78.5249 113.938 78.7114 113.49C78.763 113.339 78.7781 113.178 78.7554 113.02C78.7327 112.863 78.6728 112.713 78.5807 112.583C78.5022 112.491 78.4115 112.412 78.311 112.346Z" fill="#FF9A6C"/>
<path d="M76.4073 105.719C76.0971 105.911 75.7532 106.041 75.3941 106.103C75.0521 106.231 74.6888 106.292 74.3238 106.283C74.6332 106.09 74.9774 105.96 75.3369 105.899C75.679 105.771 76.0423 105.71 76.4073 105.719Z" fill="#FF9A6C"/>
<path d="M79.0219 107.402C78.58 107.658 78.106 107.853 77.6124 107.983C77.139 108.176 76.6415 108.303 76.1335 108.362C76.5735 108.103 77.048 107.908 77.543 107.782C78.0157 107.587 78.5135 107.459 79.0219 107.402Z" fill="#FF9A6C"/>
<path d="M76.6074 110.111C76.5462 110.111 76.5176 109.927 76.4481 109.727C76.3787 109.527 76.297 109.372 76.3419 109.318C76.3868 109.265 76.5666 109.4 76.6483 109.649C76.73 109.899 76.6442 110.119 76.6074 110.111Z" fill="#FF9A6C"/>
<path d="M77.2815 112.456C77.2203 112.456 77.2448 112.15 77.159 111.819C77.0732 111.488 76.9261 111.234 76.9711 111.194C77.016 111.153 77.2693 111.373 77.3796 111.765C77.4899 112.158 77.3346 112.456 77.2815 112.456Z" fill="#FF9A6C"/>
<path d="M27.6166 93.6105C26.9384 94.019 21.1986 97.9409 22.0361 104.363C22.8735 110.785 35.5788 125.304 38.2302 125.582L48.423 127.257V115.25L43.5206 114.972L37.1149 102.406L27.6166 93.6105Z" fill="#18CEB5"/>
<path d="M48.4189 114.67C48.299 114.692 48.1773 114.703 48.0553 114.703L47.0258 114.744L43.3736 114.825H43.3246L43.2919 114.785L40.71 111.312C39.1698 109.233 37.789 107.341 36.7963 105.964L35.6319 104.33C35.479 104.135 35.3423 103.927 35.2234 103.709C35.3959 103.886 35.5544 104.076 35.6973 104.277L36.9229 105.87C37.9483 107.219 39.3741 109.098 40.8897 111.181L43.4512 114.666L43.3695 114.625H47.0218H48.0512C48.1752 114.625 48.2987 114.64 48.4189 114.67Z" fill="#263238"/>
<path d="M45.9432 96.4579C45.8664 96.3426 45.7994 96.221 45.7431 96.0944L45.2406 95.0403H45.3509C44.98 95.5796 44.6509 96.1464 44.3663 96.7357C44.006 97.5203 43.5781 98.2721 43.0876 98.9827L43.0059 99.097L42.9201 98.9867C42.2583 98.1697 41.5025 97.3077 40.6895 96.4212C38.9124 94.4888 37.213 92.8139 35.9996 91.5883L34.5657 90.1298C34.3844 89.9588 34.2177 89.7729 34.0673 89.5742C34.2676 89.7244 34.456 89.8896 34.6311 90.0685L36.114 91.4739C37.3396 92.6709 39.0759 94.3336 40.8611 96.2659C41.6782 97.1565 42.4299 98.0308 43.0876 98.8519H42.916C43.4037 98.1517 43.8354 97.414 44.207 96.6459C44.5045 96.0542 44.8531 95.4897 45.2487 94.9586L45.3141 94.8688L45.355 94.9668C45.5388 95.408 45.6899 95.7634 45.8043 96.0453C45.8681 96.1764 45.9148 96.315 45.9432 96.4579Z" fill="#263238"/>
<path d="M52.9128 93.3858C53.049 93.5682 53.1527 93.7727 53.2192 93.9904C53.4285 94.5425 53.6071 95.1058 53.7543 95.6776L53.8932 96.1761L53.5746 95.7675C53.1186 95.2019 52.6187 94.6733 52.0794 94.1865C51.6055 93.7535 51.1438 93.3695 50.723 92.9854L50.8946 92.9201C50.8355 93.5897 50.815 94.2622 50.8333 94.9341C50.8488 95.201 50.8142 95.4685 50.7312 95.7226C50.7067 95.7226 50.7312 95.4325 50.7026 94.9382C50.6495 94.2584 50.6495 93.5754 50.7026 92.8956L50.723 92.7036L50.8742 92.8302C51.2827 93.1856 51.773 93.5819 52.2509 94.0231C52.8014 94.5203 53.3047 95.0673 53.7543 95.6572L53.5746 95.743C53.3989 95.0363 53.2559 94.448 53.1252 94.0435C53.0388 93.8296 52.9678 93.6098 52.9128 93.3858Z" fill="#263238"/>
<path d="M67.6566 112.963C67.4825 112.826 67.3199 112.676 67.1704 112.513L65.9162 111.23C65.3892 110.679 64.7642 110.062 64.0779 109.298C63.7633 108.889 63.4855 108.452 63.1587 108.023C62.827 107.56 62.5423 107.064 62.3089 106.545C61.8228 105.491 61.4551 104.449 61.1242 103.505C60.7933 102.561 60.5032 101.708 60.2377 101.005C59.9721 100.302 59.727 99.7384 59.5391 99.3708C59.4284 99.1812 59.3301 98.9847 59.2449 98.7825C59.2449 98.7825 59.2899 98.8233 59.3512 98.9132C59.448 99.0438 59.5367 99.1802 59.6167 99.3217C59.9097 99.8489 60.1677 100.395 60.3888 100.956C60.6789 101.659 60.9853 102.504 61.3244 103.444C61.6634 104.383 62.0352 105.417 62.5173 106.459C62.7435 106.964 63.0171 107.447 63.3343 107.901C63.6652 108.338 63.943 108.791 64.2413 109.18C64.8827 109.911 65.5241 110.573 66.0265 111.128L67.2317 112.456C67.3874 112.612 67.5296 112.782 67.6566 112.963Z" fill="#263238"/>
<path d="M73.5475 119.74L112.08 118.657C112.69 118.641 113.297 118.754 113.861 118.988C115.262 119.585 117.783 121.117 119.511 124.785C122.015 130.096 133.699 152.565 133.699 152.565L121.885 158.62L107.394 131.739L62.7174 127.939L63.2363 124.369L73.5475 119.74Z" fill="#263238"/>
<path d="M118.376 153.885L124.532 164.454L124.941 167.125C125 167.514 125.135 167.887 125.339 168.223C125.542 168.559 125.81 168.852 126.127 169.085C126.444 169.317 126.803 169.485 127.185 169.579C127.567 169.672 127.963 169.689 128.352 169.63L147.091 166.77C147.312 166.741 147.524 166.661 147.71 166.536C147.895 166.412 148.05 166.247 148.162 166.054C148.274 165.86 148.339 165.644 148.354 165.421C148.369 165.198 148.332 164.975 148.247 164.768C148.167 164.585 148.044 164.424 147.889 164.298C147.734 164.171 147.552 164.083 147.357 164.041C145.788 163.632 133.695 159.2 133.695 159.2L128.654 149.085L118.376 153.885Z" fill="#E0E0E0"/>
<path d="M123.535 156.332C123.021 155.811 122.557 155.242 122.15 154.633C121.682 154.066 121.272 153.454 120.925 152.806C121.437 153.328 121.899 153.897 122.306 154.506C122.774 155.073 123.186 155.685 123.535 156.332Z" fill="#263238"/>
<path d="M127.212 154.853C126.696 154.327 126.261 153.726 125.921 153.072C125.521 152.452 125.213 151.778 125.006 151.07C125.063 151.042 125.496 151.924 126.105 152.966C126.714 154.007 127.265 154.816 127.212 154.853Z" fill="#263238"/>
<path d="M129.782 169.291C129.741 169.291 129.643 168.927 129.373 168.375C129.012 167.66 128.499 167.033 127.868 166.539C127.237 166.044 126.506 165.695 125.725 165.516C125.124 165.373 124.736 165.369 124.736 165.328C125.074 165.251 125.424 165.251 125.762 165.328C126.588 165.467 127.366 165.811 128.025 166.328C128.683 166.846 129.202 167.52 129.532 168.29C129.687 168.601 129.772 168.943 129.782 169.291Z" fill="#263238"/>
<path d="M142.409 167.473C142.254 167.268 142.152 167.028 142.111 166.774C141.963 166.164 141.995 165.524 142.201 164.932C142.414 164.35 142.746 163.82 143.177 163.375C143.336 163.175 143.534 163.008 143.757 162.885C143.782 162.913 143.59 163.13 143.308 163.489C142.939 163.949 142.644 164.463 142.434 165.013C142.246 165.567 142.194 166.159 142.283 166.737C142.344 166.979 142.386 167.225 142.409 167.473Z" fill="#263238"/>
<path d="M61.7492 124.998C61.7492 124.998 101.511 121.011 103.444 121.17C107.01 121.464 113.588 127.089 125.259 134.925C131.306 139.035 136.919 143.75 142.009 148.999L138.279 157.513C138.279 157.513 112.133 147.982 108.027 144.554C104.62 141.694 98.4025 137.65 98.4025 137.65L83.0663 137.805L71.6642 138.81C68.8517 139.059 66.0219 138.593 63.4378 137.455C60.8537 136.318 58.5991 134.545 56.8836 132.302L52.4593 126.522L61.7492 124.998Z" fill="#263238"/>
<path d="M98.2105 137.531C98.2105 137.531 98.2759 137.568 98.3943 137.65L98.9295 138.018L100.993 139.468C102.786 140.747 105.417 142.585 108.644 145.024C108.849 145.175 109.053 145.351 109.257 145.486L109.915 145.894C110.389 146.131 110.863 146.392 111.365 146.625L112.901 147.34L114.535 148.055C116.744 149.011 119.126 150.008 121.681 151.046C126.779 153.117 132.498 155.368 138.671 157.741L138.536 157.803L141.915 149.224L141.94 149.346L137.299 144.615C136.208 143.672 135.039 142.667 133.847 141.674C126.731 135.81 119.29 130.354 111.557 125.333C110.51 124.436 109.38 123.642 108.183 122.959C107.046 122.297 105.835 121.771 104.575 121.39C104.265 121.309 103.954 121.243 103.648 121.166L102.721 121.023L101.793 120.974H97.2995L85.2928 120.949L77.4981 120.917H75.4554H74.9243C74.8645 120.92 74.8044 120.92 74.7446 120.917H74.9243H75.4554H77.4981L85.2928 120.888L97.2995 120.863H101.793L102.737 120.908L103.685 121.051C103.995 121.129 104.31 121.194 104.624 121.28C105.9 121.659 107.126 122.188 108.277 122.857C109.49 123.543 110.634 124.345 111.692 125.251C119.44 130.266 126.893 135.722 134.014 141.592C135.211 142.585 136.379 143.59 137.47 144.538L142.111 149.273L142.16 149.326L142.136 149.395L138.745 157.974L138.708 158.072L138.61 158.036C132.437 155.654 126.718 153.391 121.623 151.307C119.078 150.265 116.692 149.264 114.486 148.296L112.852 147.573L111.3 146.772C110.801 146.531 110.323 146.27 109.85 146.029L109.175 145.62C108.955 145.486 108.767 145.31 108.563 145.159C105.352 142.708 102.729 140.849 100.952 139.55L98.9091 138.075L98.3862 137.691C98.2595 137.58 98.2105 137.531 98.2105 137.531Z" fill="#455A64"/>
<path d="M129.823 155.352L140.853 159.686L142.687 161.671C142.954 161.96 143.276 162.193 143.633 162.358C143.99 162.522 144.376 162.615 144.769 162.63C145.162 162.645 145.555 162.583 145.924 162.446C146.292 162.31 146.631 162.102 146.919 161.835L160.834 148.958C161.001 148.809 161.131 148.624 161.215 148.417C161.299 148.21 161.335 147.987 161.319 147.764C161.303 147.541 161.236 147.325 161.124 147.132C161.012 146.938 160.857 146.774 160.671 146.65C160.501 146.544 160.309 146.48 160.111 146.463C159.912 146.445 159.712 146.474 159.527 146.548C158.003 147.095 145.498 150.188 145.498 150.188L137.111 143.504L129.823 155.352Z" fill="#E0E0E0"/>
<path d="M129.823 155.352C129.823 155.352 129.859 155.282 129.941 155.143L130.313 154.53C130.644 153.979 131.13 153.182 131.747 152.161C133.005 150.09 134.819 147.116 137.058 143.463L137.102 143.386L137.176 143.443L145.563 150.11H145.477L152.937 148.231L156.879 147.205C157.545 147.026 158.219 146.85 158.889 146.654L159.388 146.499C159.561 146.432 159.742 146.39 159.927 146.372C160.12 146.364 160.312 146.396 160.491 146.467C160.67 146.537 160.833 146.644 160.969 146.781C161.235 147.046 161.396 147.399 161.424 147.774C161.451 148.149 161.344 148.521 161.12 148.823C161.008 148.971 160.882 149.108 160.744 149.232L160.364 149.583L159.608 150.282L156.642 153.023L151.033 158.203L148.423 160.613L147.173 161.77C146.97 161.966 146.748 162.143 146.511 162.297C145.93 162.653 145.246 162.807 144.568 162.733C143.89 162.659 143.255 162.362 142.765 161.888C142.062 161.157 141.425 160.442 140.8 159.768H140.828C137.425 158.411 134.672 157.317 132.756 156.549L130.582 155.67L130.019 155.441L129.835 155.364C129.835 155.364 129.908 155.384 130.043 155.437L130.619 155.654L132.825 156.504L140.881 159.629C141.511 160.299 142.16 161.018 142.846 161.733C143.215 162.084 143.669 162.333 144.164 162.454C144.658 162.575 145.176 162.565 145.665 162.423C145.92 162.35 146.163 162.241 146.388 162.1C146.615 161.952 146.825 161.781 147.018 161.59C147.426 161.21 147.835 160.822 148.268 160.434C149.112 159.649 149.981 158.843 150.874 158.015C152.655 156.381 154.53 154.624 156.475 152.827C157.445 151.925 158.432 151.01 159.437 150.081L160.193 149.383C160.449 149.161 160.692 148.923 160.92 148.672C161.115 148.411 161.209 148.088 161.187 147.763C161.164 147.438 161.026 147.131 160.797 146.899C160.681 146.784 160.542 146.695 160.389 146.638C160.237 146.58 160.074 146.555 159.911 146.564C159.745 146.581 159.583 146.621 159.429 146.683L158.918 146.838C158.244 147.034 157.574 147.21 156.904 147.389L152.958 148.411L145.498 150.278H145.449L145.412 150.249L137.07 143.565H137.188L131.841 152.169L130.358 154.534L129.949 155.151C129.876 155.274 129.823 155.352 129.823 155.352Z" fill="#263238"/>
<path d="M147.9 160.752C147.871 160.781 147.581 160.528 147.038 160.229C146.339 159.837 145.562 159.604 144.763 159.547C143.963 159.49 143.161 159.61 142.413 159.898C141.837 160.115 141.511 160.327 141.486 160.307C141.73 160.061 142.024 159.87 142.348 159.747C143.11 159.401 143.947 159.25 144.782 159.31C145.617 159.37 146.423 159.638 147.128 160.09C147.432 160.25 147.696 160.476 147.9 160.752Z" fill="#263238"/>
<path d="M157.345 152.177C157.103 152.092 156.883 151.952 156.704 151.769C156.242 151.345 155.911 150.798 155.752 150.192C155.603 149.59 155.58 148.964 155.686 148.353C155.705 148.099 155.776 147.852 155.895 147.626C155.915 147.876 155.904 148.127 155.862 148.374C155.809 148.961 155.852 149.553 155.989 150.126C156.143 150.692 156.432 151.212 156.83 151.642C157.137 151.969 157.37 152.14 157.345 152.177Z" fill="#263238"/>
<path d="M91.4493 137.536C90.5955 133.487 88.8511 129.345 85.399 127.069C82.7803 125.337 79.5407 124.912 76.4114 124.528L11.2672 116.517C10.683 126.783 15.0788 139.562 19.5645 148.819C20.259 150.257 21.0638 151.728 22.3956 152.606C24.0297 153.677 26.105 153.664 28.0496 153.615C49.9672 153.056 71.893 152.124 93.6881 149.726C92.4625 145.776 92.2991 141.58 91.4493 137.536Z" fill="#455A64"/>
<path d="M35.2357 119.462C34.9788 119.465 34.722 119.449 34.4676 119.413L32.3841 119.188C30.6275 118.984 28.2049 118.686 25.5331 118.318C22.8613 117.951 20.4428 117.579 18.7025 117.272C17.8282 117.117 17.1256 116.991 16.6598 116.864C16.4064 116.822 16.1564 116.76 15.9122 116.68C16.1689 116.692 16.4243 116.724 16.6762 116.774L18.7433 117.093C20.4919 117.354 22.9063 117.701 25.578 118.069L32.4209 119.005L34.4962 119.303C34.7465 119.337 34.9938 119.39 35.2357 119.462Z" fill="#263238"/>
<path d="M35.5707 173.053C35.545 173.013 35.5231 172.971 35.5053 172.926C35.4563 172.833 35.3991 172.706 35.3255 172.551L34.6637 171.092L34.1858 170.059C34.0223 169.65 33.863 169.242 33.6792 168.776C33.3278 167.857 32.8866 166.819 32.5108 165.63C32.3147 165.042 32.1023 164.425 31.8939 163.78C31.6856 163.134 31.4854 162.448 31.3015 161.737C30.893 160.336 30.5417 158.808 30.1658 157.206C28.6501 150.217 28.1533 143.045 28.691 135.914C28.8422 134.28 28.9607 132.719 29.1894 131.273C29.2997 130.55 29.3733 129.847 29.4958 129.177C29.6184 128.507 29.7409 127.87 29.8553 127.257C30.0637 126.031 30.3578 124.941 30.5784 123.989C30.6969 123.507 30.795 123.061 30.9053 122.653C31.0156 122.244 31.134 121.877 31.2321 121.542C31.4241 120.884 31.5793 120.369 31.6856 120.006L31.8122 119.597C31.8238 119.551 31.8402 119.505 31.8612 119.462C31.8581 119.51 31.8485 119.556 31.8326 119.601L31.7305 120.01L31.322 121.554L31.0156 122.669C30.9134 123.078 30.8195 123.531 30.7092 124.009C30.4967 124.973 30.2148 126.052 30.0187 127.277C29.9125 127.886 29.7941 128.527 29.6756 129.193C29.5571 129.859 29.4877 130.562 29.3855 131.285C29.1608 132.727 29.0505 134.284 28.9035 135.918C28.3988 143.033 28.8938 150.184 30.3742 157.161C30.7459 158.759 31.0687 160.287 31.4895 161.684C31.6896 162.386 31.8571 163.069 32.0655 163.726C32.2738 164.384 32.474 164.989 32.6701 165.577C33.0337 166.766 33.4627 167.804 33.8017 168.731C33.9815 169.193 34.1326 169.626 34.292 170.018L34.7495 171.076L35.3705 172.551L35.5298 172.939C35.5474 172.975 35.5611 173.014 35.5707 173.053Z" fill="#263238"/>
<path d="M34.8803 152.353C34.0282 152.43 33.1708 152.43 32.3188 152.353C31.4611 152.352 30.6051 152.274 29.7614 152.12C30.6149 152.045 31.4734 152.045 32.3269 152.12C33.1832 152.123 34.0376 152.201 34.8803 152.353Z" fill="#263238"/>
<path d="M34.2879 155.352C33.3782 155.272 32.4886 155.038 31.657 154.661C30.7966 154.355 29.9951 153.903 29.2875 153.325C29.3243 153.268 30.3619 153.893 31.7387 154.449C33.1154 155.004 34.3002 155.262 34.2879 155.352Z" fill="#263238"/>
<path d="M28.5807 134.876C28.0715 135.196 27.4864 135.375 26.8853 135.395C26.2911 135.488 25.6829 135.424 25.1205 135.211C25.1205 135.142 25.909 135.26 26.8649 135.166C27.8209 135.072 28.5562 134.815 28.5807 134.876Z" fill="#263238"/>
<path d="M29.8839 133.896C29.2513 134.028 28.5927 133.944 28.0129 133.659C27.4032 133.443 26.8848 133.026 26.5422 132.478C27.0303 132.85 27.5529 133.174 28.1027 133.446C29.0342 133.851 29.8839 133.822 29.8839 133.896Z" fill="#263238"/>
<path d="M52.8229 63.9063C52.6603 63.4827 52.3985 63.1043 52.0594 62.8029C51.7204 62.5015 51.3139 62.2859 50.8742 62.1741C49.9893 61.9551 49.0607 61.9891 48.1942 62.2722L39.7295 64.2086C40.9551 65.0257 43.4757 65.7937 44.9219 65.9489C47.034 66.1736 48.5211 66.1941 49.7793 65.4669C49.8612 65.6755 49.9863 65.8644 50.1466 66.0212C50.3068 66.1779 50.4984 66.2988 50.7088 66.376C50.9193 66.4532 51.1436 66.485 51.3672 66.4691C51.5908 66.4532 51.8084 66.3901 52.0058 66.2839C52.3876 66.0355 52.6754 65.6665 52.8235 65.2357C52.9715 64.8049 52.9713 64.337 52.8229 63.9063Z" fill="#263238"/>
<path d="M137.393 152.704C135.672 152.348 134.018 151.724 132.49 150.858C132.515 150.8 133.593 151.266 134.941 151.773C136.29 152.279 137.409 152.647 137.393 152.704Z" fill="#263238"/>
<path d="M139.255 149.085C138.515 148.78 137.791 148.438 137.086 148.059C136.35 147.747 135.631 147.395 134.933 147.005C135.715 147.2 136.469 147.489 137.18 147.867C137.921 148.183 138.618 148.592 139.255 149.085Z" fill="#263238"/>
<path d="M71.8317 123.449L88.896 123.658L109.502 119.573C109.826 119.505 110.121 119.34 110.35 119.101C110.578 118.862 110.728 118.559 110.781 118.233L113.583 99.6771C113.615 99.4641 113.596 99.2467 113.528 99.0424C113.46 98.8382 113.344 98.6529 113.191 98.5016C113.038 98.3503 112.851 98.2374 112.646 98.1719C112.441 98.1064 112.223 98.0902 112.011 98.1247L90.9509 101.552C90.6591 101.6 90.3905 101.741 90.1852 101.954C89.9798 102.166 89.8486 102.44 89.8111 102.733L87.4621 121.603L71.8563 121.525C71.6013 121.525 71.3567 121.626 71.176 121.806C70.9953 121.986 70.8932 122.23 70.8921 122.485C70.891 122.737 70.9889 122.979 71.1646 123.16C71.3404 123.34 71.58 123.444 71.8317 123.449Z" fill="#E0E0E0"/>
<path d="M71.8318 123.449C71.7215 123.458 71.6109 123.439 71.509 123.396C71.3545 123.341 71.2168 123.247 71.1088 123.123C71.0009 122.999 70.9263 122.85 70.8921 122.69C70.8645 122.558 70.8639 122.422 70.8905 122.291C70.9171 122.159 70.9702 122.034 71.0467 121.923C71.1231 121.813 71.2213 121.719 71.3352 121.648C71.4491 121.577 71.5764 121.529 71.7092 121.509C72.3343 121.484 73.041 121.509 73.8499 121.509L87.458 121.542L87.3845 121.607C88.0545 116.178 88.8511 109.76 89.7294 102.619C89.7804 102.38 89.8895 102.158 90.047 101.972C90.2045 101.786 90.4056 101.642 90.6323 101.552C90.8554 101.481 91.0854 101.433 91.3186 101.409L91.9968 101.295L94.7462 100.85L100.412 99.9223L106.283 98.9745L109.282 98.4883L110.797 98.2391L111.557 98.1165C111.818 98.06 112.083 98.0313 112.35 98.0308C112.641 98.0561 112.919 98.1668 113.148 98.3493C113.377 98.5317 113.547 98.7776 113.637 99.0562C113.714 99.3318 113.722 99.6222 113.661 99.9018L113.539 100.694C113.381 101.751 113.223 102.801 113.065 103.844C112.75 105.924 112.44 107.978 112.133 109.993C111.827 112.007 111.529 113.98 111.239 115.916L111.018 117.354C110.981 117.595 110.948 117.832 110.912 118.069C110.888 118.32 110.821 118.565 110.712 118.792C110.597 119.017 110.434 119.215 110.234 119.369C110.034 119.524 109.802 119.632 109.555 119.687L108.175 119.961L88.9124 123.752L76.4032 123.568L73.0247 123.507L72.1137 123.486H71.8154H72.1137H72.992L76.3746 123.507L88.8838 123.625L108.138 119.785L109.515 119.507C109.733 119.46 109.937 119.364 110.114 119.228C110.291 119.092 110.435 118.918 110.536 118.719C110.635 118.511 110.695 118.287 110.712 118.057L110.822 117.342C110.891 116.864 110.965 116.382 111.038 115.9L111.929 109.976C112.231 107.963 112.54 105.921 112.856 103.848C113.012 102.808 113.17 101.758 113.33 100.698L113.449 99.9059C113.512 99.6608 113.512 99.4035 113.449 99.1583C113.373 98.9197 113.228 98.7088 113.032 98.5525C112.837 98.3962 112.599 98.3013 112.35 98.28C112.101 98.2821 111.853 98.3095 111.61 98.3617L110.846 98.4883L109.335 98.7334L106.332 99.2196L100.466 100.176L94.7993 101.095L92.0499 101.54L91.3717 101.65C91.151 101.672 90.9332 101.717 90.7222 101.785C90.5263 101.861 90.3527 101.985 90.2171 102.146C90.0815 102.307 89.9883 102.498 89.946 102.704C89.0472 109.821 88.2383 116.247 87.5561 121.672V121.738H87.4866L73.8785 121.64C73.0614 121.64 72.3547 121.615 71.746 121.64C71.6085 121.659 71.477 121.708 71.361 121.784C71.2451 121.861 71.1477 121.962 71.076 122.081C71.0053 122.198 70.961 122.329 70.9463 122.465C70.9315 122.601 70.9467 122.739 70.9906 122.868C71.0346 122.998 71.1063 123.116 71.2008 123.215C71.2953 123.314 71.4102 123.391 71.5376 123.441C71.635 123.456 71.7337 123.458 71.8318 123.449Z" fill="#263238"/>
<path d="M91.6332 102.149C91.6904 102.149 91.1266 107.08 90.3708 113.15C89.615 119.221 88.9573 124.136 88.896 124.128C88.8347 124.119 89.4067 119.197 90.1625 113.126C90.9182 107.055 91.576 102.141 91.6332 102.149Z" fill="#263238"/>
<path d="M100.792 109.809C100.363 110.703 100.6 111.708 101.319 112.056C102.038 112.403 102.953 111.953 103.399 111.059C103.844 110.164 103.591 109.159 102.872 108.816C102.153 108.473 101.221 108.914 100.792 109.809Z" fill="white"/>
<path d="M256.638 102.1C256.631 102.153 256.618 102.205 256.597 102.255L256.45 102.7C256.32 103.088 256.132 103.66 255.866 104.396C255.351 105.866 254.575 107.987 253.55 110.581C250.905 117.35 247.743 123.906 244.092 130.19C243.063 131.975 242.16 133.83 241.392 135.742C240.699 137.535 240.213 139.402 239.946 141.306C239.546 144.542 239.546 147.814 239.946 151.05C240.244 153.82 240.644 156.042 240.902 157.586C241.032 158.342 241.135 158.938 241.208 159.355C241.241 159.547 241.265 159.698 241.282 159.813C241.293 159.865 241.3 159.918 241.302 159.972C241.285 159.921 241.271 159.869 241.261 159.817C241.237 159.706 241.204 159.555 241.167 159.359C241.086 158.951 240.967 158.354 240.82 157.598C240.538 156.066 240.113 153.848 239.795 151.062C239.378 147.808 239.369 144.514 239.77 141.257C240.032 139.338 240.516 137.456 241.212 135.648C241.981 133.72 242.888 131.85 243.925 130.051C247.568 123.772 250.743 117.233 253.423 110.487C254.469 107.905 255.266 105.793 255.805 104.33C256.075 103.607 256.283 103.043 256.426 102.647L256.593 102.21C256.614 102.149 256.638 102.1 256.638 102.1Z" fill="#263238"/>
<path d="M252.684 126.599C252.647 126.682 252.603 126.761 252.553 126.836L252.144 127.494C251.785 128.066 251.25 128.883 250.588 129.888C249.264 131.902 247.377 134.643 245.477 137.789C244.538 139.366 243.7 140.902 242.997 142.328C242.295 143.753 241.731 145.073 241.286 146.188C240.84 147.303 240.514 148.231 240.309 148.864C240.203 149.166 240.121 149.411 240.056 149.599C240.032 149.686 239.998 149.77 239.954 149.849C239.963 149.759 239.984 149.671 240.015 149.587C240.068 149.395 240.142 149.146 240.228 148.84C240.411 148.19 240.726 147.267 241.143 146.135C241.559 145.003 242.119 143.684 242.818 142.242C243.516 140.8 244.35 139.26 245.297 137.679C247.197 134.525 249.109 131.796 250.461 129.802L252.075 127.449L252.52 126.812C252.567 126.735 252.622 126.664 252.684 126.599Z" fill="#263238"/>
<path d="M256.597 102.1C256.7 101.103 255.621 100.11 254.681 99.7589C253.713 99.4749 252.684 99.4749 251.715 99.7589C248.877 100.436 246.293 101.916 244.274 104.023C242.255 106.13 240.885 108.774 240.33 111.639C242.952 110.342 245.649 109.202 248.406 108.224L247.941 108.358C249.278 108.089 250.541 107.532 251.642 106.726C252.743 105.921 253.656 104.886 254.318 103.693C254.533 103.216 254.821 102.775 255.172 102.386C255.351 102.195 255.586 102.065 255.843 102.014C256.1 101.963 256.366 101.993 256.606 102.1" fill="#455A64"/>
<path d="M256.606 102.092C259.212 100.289 262.417 99.5698 265.544 100.086C267.091 100.358 268.559 100.969 269.844 101.873C271.128 102.778 272.197 103.954 272.975 105.319C273.725 106.697 274.121 108.239 274.129 109.807C274.137 111.375 273.756 112.921 273.02 114.307C271.574 111.304 270.026 108.179 267.338 106.21C266.704 105.752 265.994 105.331 265.638 104.633C265.23 103.816 265.397 102.831 265.042 101.998C264.609 100.972 263.408 100.67 262.301 100.613C261.193 100.555 257.962 101.581 256.606 102.075" fill="#455A64"/>
<path d="M256.536 102.043C259.208 101.25 262.231 102.557 264.053 104.559C265.875 106.561 266.794 109.249 267.109 111.937C267.423 114.625 267.17 117.342 266.896 120.034C264.804 116.91 263.248 113.458 262.292 109.821C261.884 108.187 261.549 106.487 260.777 104.976C260.334 104.201 259.723 103.535 258.989 103.027C258.255 102.519 257.417 102.181 256.536 102.038" fill="#455A64"/>
<path d="M256.446 102.1C258.583 101.111 259.788 98.8805 260.062 96.5396C260.186 95.3655 260.015 94.1789 259.562 93.0884C259.11 91.9978 258.391 91.0382 257.472 90.2973C256.42 91.2865 255.673 92.5562 255.32 93.9563C254.966 95.3564 255.021 96.8284 255.478 98.1983C255.932 99.4851 256.753 100.772 256.446 102.1Z" fill="#455A64"/>
<path d="M239.37 145.432C239.315 145.331 239.27 145.224 239.235 145.114C239.149 144.901 239.047 144.583 238.88 144.182C238.569 143.365 238.062 142.221 237.421 140.828C235.655 137.21 233.64 133.718 231.391 130.378C229.182 127.01 226.733 123.806 224.062 120.79C223.257 119.875 222.38 119.025 221.439 118.249C221.182 118.041 220.908 117.852 220.622 117.685C220.517 117.636 220.416 117.578 220.32 117.513C220.43 117.551 220.538 117.594 220.643 117.644C220.938 117.801 221.221 117.982 221.488 118.183C222.452 118.939 223.349 119.777 224.168 120.688C226.879 123.681 229.351 126.881 231.563 130.26C233.827 133.604 235.835 137.115 237.568 140.763C238.214 142.172 238.683 143.337 238.969 144.154C239.125 144.562 239.214 144.881 239.288 145.097C239.325 145.206 239.352 145.319 239.37 145.432Z" fill="#263238"/>
<path d="M247.058 169.838H232.457L230.182 152.937H249.775L247.058 169.838Z" fill="#18CEB5"/>
<path d="M260.74 132.65C259.265 129.483 255.474 127.416 251.993 127.698C252.368 127.885 252.695 128.156 252.947 128.491C253.198 128.825 253.369 129.214 253.444 129.626C253.581 130.45 253.654 131.283 253.664 132.118C253.979 136.118 256.553 139.529 259.02 142.687C260.756 144.905 262.505 147.136 264.58 149.044C264.331 143.357 263.971 137.331 260.74 132.65Z" fill="#455A64"/>
<path d="M251.993 127.743C254.203 126.044 257.055 125.337 259.845 125.292C262.636 125.247 265.389 125.864 268.089 126.55C269.724 126.959 271.358 127.416 272.751 128.356C274.144 129.296 275.247 130.807 275.271 132.478C272.979 129.957 269.286 129.471 266.014 128.519C263.8 127.878 261.659 126.955 259.4 126.477C256.863 126.063 254.261 126.493 251.993 127.702" fill="#455A64"/>
<path d="M252.373 127.294C251.405 126.276 251.94 123.899 252.782 122.779C253.623 121.66 254.967 121.027 256.291 120.557C258.031 119.936 259.836 119.516 261.671 119.303C261.436 120.457 260.839 121.506 259.968 122.297C259.099 123.078 258.148 123.763 257.133 124.34L252.365 127.29" fill="#455A64"/>
<path d="M243.288 125.937C240.522 127.163 238.385 129.414 236.314 131.62C239.384 130.873 242.32 129.658 245.02 128.017C246.09 127.363 247.152 126.632 248.378 126.358C249.603 126.084 250.976 126.632 251.997 127.478C250.261 124.92 246.053 124.712 243.288 125.937Z" fill="#455A64"/>
<path d="M241.984 144.031C243.533 140.477 242.879 136.167 244.844 132.829C246.351 130.272 249.129 128.744 251.895 127.674C252.537 129.598 252.23 131.759 251.417 133.61C250.604 135.46 249.313 137.078 247.953 138.581C246.07 140.661 244.023 142.585 241.98 144.509" fill="#455A64"/>
<path d="M250.674 152.937H228.838V156.741H250.674V152.937Z" fill="#18CEB5"/>
<path d="M249.947 156.859C249.947 156.92 245.22 156.965 239.394 156.965C233.569 156.965 228.838 156.92 228.838 156.859C228.838 156.798 233.565 156.753 239.394 156.753C245.224 156.753 249.947 156.802 249.947 156.859Z" fill="#263238"/>
<path d="M257.586 102.243C256.863 100.892 256.014 99.6131 255.049 98.423C254.075 97.2299 252.781 96.3386 251.319 95.8533C249.35 95.2773 247.234 95.7348 245.273 96.319C242.975 97.0041 240.732 97.8589 238.561 98.8764C241.428 99.9553 244.579 100.012 247.483 99.0358C248.987 98.5251 250.445 98.5905 252.022 98.7702C253.942 98.9867 256.344 100.764 257.586 102.243Z" fill="#455A64"/>
<path d="M205.433 124.777C201.993 129.157 200.845 134.99 201.234 140.563C203.28 133.149 207.538 126.535 213.44 121.603C215.687 119.74 218.555 118.261 221.337 118.261C215.614 117.767 208.971 120.259 205.433 124.777Z" fill="#455A64"/>
<path d="M213.424 115.982C211.504 116.125 209.747 117.097 208.162 118.184C205.736 119.85 203.456 121.954 202.398 124.72C204.547 122.19 207.286 120.229 210.374 119.01C213.461 117.791 216.802 117.351 220.099 117.73C218.008 116.676 215.753 115.81 213.424 115.982Z" fill="#455A64"/>
<path d="M218.8 109.404C217.689 110.176 216.839 111.447 216.897 112.795C216.972 113.728 217.361 114.607 218 115.291C218.701 116.105 219.479 116.85 220.324 117.514C221.031 114.392 221.877 111.132 222.583 108.011C221.241 108.216 219.955 108.69 218.8 109.404Z" fill="#455A64"/>
<path d="M225.312 109.106C223.773 110.03 222.533 111.379 221.742 112.991C221.01 114.625 220.708 116.668 221.627 118.196C224.261 114.256 227.103 110.46 230.141 106.822C228.462 107.427 226.845 108.191 225.312 109.106Z" fill="#455A64"/>
<path d="M230.815 114.466C229.086 114.345 227.353 114.645 225.766 115.341C224.178 116.037 222.783 117.108 221.701 118.461C223.213 117.691 224.914 117.369 226.603 117.534C230.835 118.082 235.035 118.861 239.182 119.867C238.329 118.356 237.122 117.075 235.665 116.134C234.207 115.194 232.543 114.621 230.815 114.466Z" fill="#455A64"/>
<path d="M222.101 118.196C218.858 118.375 216.022 120.872 214.891 123.915C213.759 126.959 214.147 130.411 215.369 133.418C216.59 136.424 218.596 139.047 220.716 141.506C221.779 137.83 222.849 134.153 223.319 130.386C223.788 126.62 223.429 121.766 222.101 118.196Z" fill="#455A64"/>
<g opacity="0.3">
<path d="M205.433 124.777C201.993 129.157 200.845 134.99 201.234 140.563C203.28 133.149 207.538 126.535 213.44 121.603C215.687 119.74 218.555 118.261 221.337 118.261C215.614 117.767 208.971 120.259 205.433 124.777Z" fill="black"/>
<path d="M213.424 115.982C211.504 116.124 209.747 117.097 208.162 118.183C205.736 119.85 203.456 121.954 202.398 124.72C204.547 122.19 207.286 120.229 210.374 119.01C213.461 117.791 216.802 117.351 220.099 117.73C218.008 116.676 215.753 115.81 213.424 115.982Z" fill="black"/>
<path d="M218.8 109.404C217.689 110.176 216.839 111.447 216.897 112.795C216.972 113.728 217.361 114.607 218 115.291C218.701 116.105 219.479 116.85 220.324 117.514C221.031 114.392 221.877 111.132 222.583 108.011C221.241 108.216 219.955 108.69 218.8 109.404Z" fill="black"/>
<path d="M225.312 109.106C223.773 110.03 222.533 111.379 221.742 112.991C221.01 114.625 220.708 116.668 221.627 118.196C224.261 114.256 227.103 110.46 230.141 106.822C228.462 107.427 226.845 108.191 225.312 109.106Z" fill="black"/>
<path d="M230.815 114.466C229.086 114.345 227.353 114.645 225.766 115.341C224.178 116.037 222.783 117.108 221.701 118.461C223.213 117.69 224.914 117.369 226.603 117.534C230.835 118.082 235.035 118.861 239.182 119.867C238.329 118.356 237.122 117.075 235.665 116.134C234.207 115.194 232.543 114.621 230.815 114.466Z" fill="black"/>
<path d="M222.101 118.196C218.858 118.375 216.022 120.872 214.891 123.915C213.759 126.959 214.147 130.411 215.369 133.418C216.59 136.424 218.596 139.047 220.716 141.506C221.779 137.83 222.849 134.153 223.319 130.386C223.788 126.62 223.429 121.766 222.101 118.196Z" fill="black"/>
</g>
<g opacity="0.2">
<path d="M260.74 132.65C259.265 129.483 255.474 127.416 251.993 127.698C252.368 127.885 252.695 128.156 252.947 128.491C253.198 128.825 253.369 129.214 253.444 129.626C253.581 130.45 253.654 131.283 253.664 132.118C253.979 136.118 256.553 139.529 259.02 142.687C260.756 144.905 262.505 147.136 264.58 149.044C264.331 143.357 263.971 137.331 260.74 132.65Z" fill="black"/>
<path d="M251.993 127.743C254.203 126.044 257.055 125.337 259.845 125.292C262.636 125.247 265.389 125.864 268.089 126.55C269.724 126.959 271.358 127.416 272.751 128.356C274.144 129.296 275.247 130.807 275.271 132.478C272.979 129.957 269.286 129.471 266.014 128.519C263.8 127.878 261.659 126.955 259.4 126.477C256.863 126.063 254.261 126.493 251.993 127.702" fill="black"/>
<path d="M252.373 127.294C251.405 126.276 251.94 123.899 252.782 122.779C253.623 121.66 254.967 121.027 256.291 120.557C258.031 119.936 259.836 119.516 261.671 119.303C261.436 120.457 260.839 121.506 259.968 122.297C259.099 123.078 258.148 123.763 257.133 124.34L252.365 127.29" fill="black"/>
<path d="M243.288 125.937C240.522 127.163 238.385 129.414 236.314 131.62C239.384 130.873 242.32 129.658 245.02 128.017C246.09 127.363 247.152 126.632 248.378 126.358C249.603 126.084 250.976 126.632 251.997 127.478C250.261 124.92 246.053 124.712 243.288 125.937Z" fill="black"/>
<path d="M241.984 144.031C243.533 140.477 242.879 136.167 244.844 132.829C246.351 130.272 249.129 128.744 251.895 127.674C252.537 129.598 252.23 131.759 251.417 133.61C250.604 135.46 249.313 137.078 247.953 138.581C246.07 140.661 244.023 142.585 241.98 144.509" fill="black"/>
</g>
<path d="M108.546 70.1527H69.2539C68.7121 70.1527 68.1926 70.3679 67.8095 70.7509C67.4264 71.134 67.2112 71.6536 67.2112 72.1953V90.0971C67.2112 90.6388 67.4264 91.1584 67.8095 91.5414C68.1926 91.9245 68.7121 92.1397 69.2539 92.1397H85.738L89.2391 96.6335L92.1601 92.1397H108.55C109.092 92.1397 109.612 91.9245 109.995 91.5414C110.378 91.1584 110.593 90.6388 110.593 90.0971V72.1994C110.594 71.9305 110.541 71.6641 110.438 71.4155C110.336 71.1669 110.185 70.9411 109.995 70.7509C109.805 70.5608 109.579 70.41 109.33 70.3074C109.082 70.2047 108.815 70.1521 108.546 70.1527Z" fill="white"/>
<path d="M108.546 70.1527H108.742C108.934 70.1669 109.123 70.2096 109.302 70.2793C109.597 70.3909 109.861 70.57 110.074 70.8022C110.374 71.124 110.561 71.5337 110.609 71.9706C110.646 73.9193 110.638 76.7545 110.65 80.3455C110.65 82.1389 110.65 84.1244 110.65 86.2732C110.65 87.3477 110.65 88.467 110.65 89.6232C110.663 89.9207 110.649 90.2187 110.609 90.5138C110.55 90.8173 110.423 91.1035 110.238 91.3513C110.051 91.6078 109.809 91.8192 109.53 91.9698C109.25 92.1204 108.941 92.2064 108.624 92.2214H92.1357L92.2174 92.1765L89.3005 96.6703L89.2228 96.7888L89.137 96.6785L85.6319 92.1847L85.7136 92.2255H69.8626C69.5767 92.2255 69.307 92.2255 69.0047 92.2255C68.5614 92.1748 68.1447 91.9875 67.8125 91.6896C67.4802 91.3917 67.2487 90.998 67.15 90.5628C67.1004 90.2811 67.0826 89.9947 67.0969 89.709V88.8919C67.0969 86.6722 67.0969 84.4934 67.0969 82.3554V76.0191C67.0969 74.9842 67.0969 73.9629 67.0969 72.9552V72.1994C67.0971 71.8057 67.2059 71.4197 67.4113 71.0838C67.6168 70.7479 67.9108 70.4752 68.2612 70.2956C68.4905 70.1763 68.7397 70.1001 68.9965 70.071C69.2539 70.0464 69.4909 70.071 69.736 70.071H74.0337H79.4671H89.2269L103.358 70.1036L107.198 70.1241H108.199H108.538H108.199H107.198L103.358 70.1445L89.2269 70.1772H79.4671H69.7441C69.5031 70.1772 69.2539 70.1772 69.0251 70.1772C68.7921 70.202 68.5661 70.2713 68.3592 70.3814C68.0421 70.5453 67.7761 70.7931 67.5903 71.0979C67.4044 71.4026 67.3058 71.7526 67.3052 72.1095V75.9293C67.3052 77.9923 67.3052 80.1044 67.3052 82.2492V89.6313C67.2917 89.9047 67.3081 90.1787 67.3543 90.4484C67.4142 90.7079 67.5267 90.9523 67.6848 91.1666C67.8429 91.3809 68.0432 91.5606 68.2734 91.6944C68.5035 91.8299 68.7597 91.9149 69.0251 91.9436C69.2866 91.9681 69.5807 91.9436 69.8422 91.9436H85.7748L85.8034 91.9845L89.3045 96.4783H89.1411L92.0621 91.9845L92.0907 91.9395H92.1438H108.624C109.061 91.9202 109.48 91.7554 109.813 91.4712C110.146 91.187 110.374 90.7997 110.462 90.3708C110.501 90.0852 110.514 89.7968 110.503 89.5088C110.503 88.3526 110.503 87.2333 110.503 86.1588C110.503 84.01 110.503 82.0245 110.503 80.2311C110.503 76.6442 110.532 73.7967 110.503 71.8603C110.463 71.495 110.325 71.1473 110.103 70.854C109.882 70.5606 109.585 70.3324 109.245 70.1935C109.015 70.1466 108.78 70.1328 108.546 70.1527Z" fill="#263238"/>
<path d="M78.4703 74.0663H74.5566C74.2678 74.0663 74.0337 74.3005 74.0337 74.5893V77.3836C74.0337 77.6724 74.2678 77.9065 74.5566 77.9065H78.4703C78.7591 77.9065 78.9932 77.6724 78.9932 77.3836V74.5893C78.9932 74.3005 78.7591 74.0663 78.4703 74.0663Z" fill="#18CEB5"/>
<path d="M74.1154 74.1685L76.0028 76.1825C76.1038 76.3193 76.2476 76.4185 76.4113 76.4644C76.5138 76.48 76.6185 76.4686 76.7152 76.4313C76.8119 76.3941 76.8973 76.3322 76.9628 76.252C77.306 75.9006 77.6328 75.537 77.9678 75.1816C78.3028 74.8262 78.6051 74.5076 78.9197 74.1685C78.9264 74.1583 78.9293 74.1461 78.9281 74.1339C78.9269 74.1218 78.9215 74.1104 78.9128 74.1018C78.9042 74.0932 78.8928 74.0878 78.8807 74.0865C78.8686 74.0853 78.8564 74.0882 78.8461 74.0949L77.0445 76.015C76.9618 76.1222 76.8657 76.2183 76.7586 76.301C76.4889 76.4726 76.2602 76.301 76.0804 76.109C75.7372 75.7495 75.3982 75.3859 75.0591 75.0223L74.193 74.0949C74.1481 74.05 74.0745 74.1195 74.1195 74.1685H74.1154Z" fill="white"/>
<path d="M74.095 77.8821L75.6106 76.1581L75.823 75.917C75.868 75.868 75.7944 75.7945 75.7536 75.8435C75.247 76.4195 74.7404 76.9915 74.2379 77.5675L74.0214 77.8085C73.9806 77.8575 74.05 77.9311 74.095 77.8821Z" fill="white"/>
<path d="M78.9156 77.7309L77.498 76.0968L77.2938 75.8598C77.2488 75.8067 77.1794 75.8598 77.2202 75.9293L78.6378 77.5634C78.7073 77.6451 78.7767 77.7227 78.8421 77.8044C78.9074 77.8861 78.9606 77.7799 78.9156 77.7309Z" fill="white"/>
<path d="M82.6536 77.2938V76.0233L82.0286 77.0691H81.808L81.187 76.0478V77.2938H80.7254V75.1735H81.1339L81.9183 76.5053L82.6986 75.1858H83.1071V77.306L82.6536 77.2938Z" fill="#263238"/>
<path d="M85.1865 76.6115H83.961C83.986 76.713 84.047 76.8021 84.1326 76.8621C84.2182 76.9222 84.3227 76.9493 84.4267 76.9383C84.5018 76.9419 84.5768 76.93 84.6471 76.9032C84.7174 76.8765 84.7814 76.8356 84.8352 76.7831L85.0885 77.0568C85.0019 77.1468 84.8968 77.2169 84.7804 77.262C84.6639 77.3072 84.539 77.3264 84.4144 77.3183C84.2971 77.3302 84.1785 77.3175 84.0664 77.2809C83.9542 77.2443 83.8509 77.1847 83.7632 77.1058C83.6755 77.0269 83.6052 76.9306 83.557 76.8229C83.5087 76.7153 83.4835 76.5987 83.483 76.4808C83.4793 76.3668 83.4995 76.2533 83.5424 76.1477C83.5852 76.042 83.6496 75.9465 83.7316 75.8672C83.8136 75.7879 83.9112 75.7267 84.0182 75.6874C84.1253 75.6482 84.2394 75.6317 84.3532 75.6392C84.4661 75.6367 84.5783 75.6577 84.6827 75.7008C84.7871 75.7439 84.8814 75.8082 84.9597 75.8895C85.038 75.9709 85.0986 76.0677 85.1377 76.1736C85.1767 76.2796 85.1934 76.3925 85.1865 76.5053C85.1865 76.5053 85.1865 76.5747 85.1865 76.6115ZM83.961 76.3378H84.778C84.778 76.2294 84.735 76.1255 84.6584 76.0489C84.5818 75.9723 84.4778 75.9293 84.3695 75.9293C84.2611 75.9293 84.1572 75.9723 84.0806 76.0489C84.004 76.1255 83.961 76.2294 83.961 76.3378Z" fill="#263238"/>
<path d="M85.3336 77.1426L85.4929 76.8035C85.663 76.9067 85.8578 76.9617 86.0567 76.9628C86.2773 76.9628 86.359 76.9016 86.359 76.8117C86.359 76.5461 85.3745 76.8117 85.3745 76.1662C85.3745 75.8598 85.6523 75.6392 86.1262 75.6392C86.3443 75.6357 86.5601 75.6848 86.7553 75.7822L86.596 76.1172C86.4526 76.0369 86.2905 75.9961 86.1262 75.9987C85.9137 75.9987 85.8239 76.0641 85.8239 76.1499C85.8239 76.4277 86.8084 76.1499 86.8084 76.7994C86.8084 77.1017 86.5265 77.3183 86.0404 77.3183C85.7933 77.3244 85.5491 77.2637 85.3336 77.1426Z" fill="#263238"/>
<path d="M86.9432 77.1426L87.0985 76.8035C87.2702 76.9062 87.4662 76.9612 87.6663 76.9628C87.8829 76.9628 87.9646 76.9016 87.9646 76.8117C87.9646 76.5461 86.98 76.8117 86.98 76.1662C86.98 75.8598 87.2578 75.6392 87.7358 75.6392C87.9527 75.6352 88.1672 75.6843 88.3608 75.7822L88.2056 76.1172C88.062 76.0375 87.9 75.9966 87.7358 75.9987C87.5234 75.9987 87.4335 76.0641 87.4335 76.1499C87.4335 76.4277 88.418 76.1499 88.418 76.7994C88.418 77.1017 88.1361 77.3183 87.6459 77.3183C87.4002 77.3239 87.1574 77.2632 86.9432 77.1426Z" fill="#263238"/>
<path d="M90.1502 76.3623V77.2938H89.7049V77.0895C89.6511 77.1691 89.5767 77.2324 89.4895 77.2727C89.4024 77.313 89.306 77.3288 89.2105 77.3183C88.8265 77.3183 88.6018 77.1059 88.6018 76.824C88.6018 76.5421 88.802 76.3378 89.3004 76.3378H89.6803C89.6803 76.1336 89.5578 76.0151 89.3045 76.0151C89.1357 76.0139 88.9711 76.0669 88.8347 76.1662L88.6672 75.8353C88.8766 75.7013 89.1213 75.633 89.3699 75.6392C89.8601 75.6392 90.1502 75.8721 90.1502 76.3623ZM89.6763 76.7709V76.6034H89.3535C89.1329 76.6034 89.0594 76.6851 89.0594 76.7954C89.0594 76.9057 89.1615 76.9915 89.329 76.9915C89.4026 76.998 89.4763 76.9809 89.5394 76.9427C89.6026 76.9045 89.652 76.8472 89.6803 76.779L89.6763 76.7709Z" fill="#263238"/>
<path d="M92.2745 75.6637V77.02C92.2859 77.1418 92.2698 77.2645 92.2273 77.3792C92.1849 77.4939 92.1173 77.5976 92.0295 77.6826C91.9417 77.7677 91.8359 77.832 91.7199 77.8708C91.604 77.9095 91.4808 77.9217 91.3594 77.9065C91.0701 77.9208 90.7837 77.8421 90.5424 77.6818L90.7303 77.3428C90.8984 77.4627 91.0998 77.527 91.3063 77.5266C91.6413 77.5266 91.7843 77.3754 91.7843 77.0813V77.0118C91.7185 77.0813 91.6384 77.1355 91.5495 77.1708C91.4606 77.2061 91.3651 77.2215 91.2696 77.2161C91.0605 77.2161 90.8599 77.133 90.712 76.9852C90.5642 76.8373 90.4811 76.6368 90.4811 76.4276C90.4811 76.2185 90.5642 76.018 90.712 75.8701C90.8599 75.7223 91.0605 75.6392 91.2696 75.6392C91.3713 75.6336 91.473 75.6517 91.5666 75.6921C91.6602 75.7325 91.7431 75.7941 91.8088 75.872V75.6637H92.2745ZM91.8088 76.4276C91.8128 76.3412 91.7906 76.2556 91.7451 76.182C91.6996 76.1084 91.6328 76.0503 91.5537 76.0153C91.4745 75.9803 91.3866 75.9701 91.3015 75.986C91.2165 76.0019 91.1382 76.0432 91.077 76.1044C91.0158 76.1656 90.9746 76.2438 90.9587 76.3289C90.9428 76.414 90.953 76.5019 90.988 76.581C91.0229 76.6602 91.081 76.7269 91.1546 76.7724C91.2282 76.818 91.3138 76.8402 91.4003 76.8362C91.5086 76.8362 91.6126 76.7931 91.6892 76.7165C91.7658 76.6399 91.8088 76.536 91.8088 76.4276Z" fill="#263238"/>
<path d="M94.3009 76.6115H93.0753C93.1003 76.713 93.1613 76.802 93.2469 76.8621C93.3325 76.9222 93.437 76.9493 93.541 76.9383C93.6161 76.9421 93.6912 76.9303 93.7616 76.9036C93.8319 76.8769 93.8959 76.8358 93.9495 76.7831L94.2028 77.0568C94.1163 77.1468 94.0111 77.2168 93.8947 77.262C93.7782 77.3072 93.6534 77.3264 93.5287 77.3182C93.4117 77.3296 93.2936 77.3164 93.1819 77.2796C93.0702 77.2427 92.9675 77.183 92.8802 77.1042C92.793 77.0253 92.7231 76.9292 92.6751 76.8219C92.6271 76.7145 92.602 76.5983 92.6014 76.4808C92.5977 76.3672 92.6179 76.2541 92.6604 76.1487C92.703 76.0433 92.7671 75.948 92.8486 75.8688C92.9301 75.7896 93.0273 75.7282 93.1338 75.6887C93.2404 75.6492 93.354 75.6323 93.4674 75.6392C93.5799 75.6346 93.6921 75.6533 93.797 75.6942C93.9019 75.735 93.9972 75.797 94.077 75.8764C94.1568 75.9558 94.2193 76.0509 94.2606 76.1556C94.302 76.2603 94.3212 76.3724 94.3172 76.4848C94.309 76.5053 94.3049 76.5747 94.3009 76.6115ZM93.0753 76.3378H93.8923C93.8923 76.2294 93.8493 76.1255 93.7727 76.0489C93.6961 75.9723 93.5921 75.9292 93.4838 75.9292C93.3754 75.9292 93.2715 75.9723 93.1949 76.0489C93.1183 76.1255 93.0753 76.2294 93.0753 76.3378Z" fill="#263238"/>
<path d="M94.4642 77.1426L94.6236 76.8035C94.7951 76.9068 94.9912 76.9619 95.1914 76.9628C95.408 76.9628 95.4897 76.9016 95.4897 76.8117C95.4897 76.5461 94.5051 76.8117 94.5051 76.1662C94.5051 75.8598 94.7829 75.6392 95.2609 75.6392C95.4777 75.6357 95.6922 75.6848 95.8859 75.7822L95.7307 76.1172C95.5869 76.0378 95.4251 75.997 95.2609 75.9987C95.0485 75.9987 94.9545 76.0641 94.9545 76.1499C94.9545 76.4277 95.939 76.1499 95.939 76.7994C95.939 77.1017 95.6612 77.3183 95.171 77.3183C94.924 77.3238 94.6799 77.2632 94.4642 77.1426Z" fill="#263238"/>
<path d="M96.989 76.2357C96.9759 76.0039 97.0327 75.7735 97.152 75.5743C97.2712 75.3751 97.4475 75.2162 97.6581 75.1183C97.8686 75.0204 98.1036 74.9879 98.3328 75.025C98.562 75.0621 98.7748 75.1671 98.9437 75.3265C99.1125 75.4858 99.2297 75.6922 99.28 75.9188C99.3303 76.1455 99.3115 76.382 99.2259 76.5979C99.1404 76.8137 98.992 76.9989 98.8001 77.1295C98.6081 77.2601 98.3814 77.3302 98.1492 77.3305C98.0002 77.3388 97.851 77.3167 97.7108 77.2655C97.5706 77.2143 97.4423 77.135 97.3337 77.0325C97.2251 76.9301 97.1386 76.8066 97.0793 76.6696C97.02 76.5326 96.9893 76.3849 96.989 76.2357ZM98.811 76.2357C98.8086 76.1043 98.7674 75.9767 98.6926 75.8687C98.6178 75.7607 98.5127 75.6773 98.3906 75.6289C98.2685 75.5805 98.1348 75.5693 98.0064 75.5967C97.8779 75.6241 97.7604 75.6888 97.6687 75.7828C97.5769 75.8768 97.515 75.9959 97.4908 76.125C97.4665 76.2541 97.481 76.3874 97.5324 76.5083C97.5837 76.6292 97.6697 76.7322 97.7795 76.8044C97.8892 76.8765 98.0179 76.9146 98.1492 76.9138C98.238 76.9156 98.3262 76.8991 98.4084 76.8654C98.4906 76.8318 98.565 76.7816 98.627 76.7181C98.689 76.6545 98.7373 76.5789 98.769 76.4959C98.8006 76.413 98.815 76.3244 98.811 76.2357Z" fill="#263238"/>
<path d="M100.086 75.5738H99.4075V75.1653H101.254V75.5738H100.576V77.2937H100.086V75.5738Z" fill="#263238"/>
<path d="M103.358 75.9416C103.358 76.4154 103.003 76.7096 102.435 76.7096H102.026V77.2938H101.528V75.1735H102.443C103.003 75.1735 103.358 75.4677 103.358 75.9416ZM102.86 75.9416C102.86 75.7087 102.708 75.5739 102.41 75.5739H102.002V76.3092H102.41C102.708 76.3092 102.86 76.1744 102.86 75.9416Z" fill="#263238"/>
<path d="M73.7477 83.4952C73.7477 81.4934 74.8589 80.3577 76.346 80.3577C77.833 80.3577 78.9483 81.4934 78.9483 83.4952C78.9483 85.497 77.8453 86.6327 76.346 86.6327C74.8467 86.6327 73.7477 85.4929 73.7477 83.4952ZM77.5348 83.4952C77.5348 82.1185 77.0486 81.5465 76.346 81.5465C75.6433 81.5465 75.1694 82.1185 75.1694 83.4952C75.1694 84.872 75.6555 85.4439 76.346 85.4439C77.0364 85.4439 77.5389 84.872 77.5389 83.4952H77.5348Z" fill="#263238"/>
<path d="M84.7127 84.7699C84.7127 85.9137 83.6913 86.6328 82.1512 86.6328C80.611 86.6328 79.602 85.9137 79.602 84.7699C79.5985 84.4677 79.6837 84.1712 79.8471 83.9171C80.0105 83.6629 80.2449 83.4623 80.5211 83.34C80.3062 83.2159 80.128 83.0372 80.0046 82.8219C79.8812 82.6067 79.817 82.3626 79.8185 82.1144C79.8185 81.0482 80.7704 80.3782 82.1512 80.3782C83.532 80.3782 84.4961 81.0482 84.4961 82.1144C84.4968 82.3634 84.4314 82.608 84.3065 82.8234C84.1816 83.0387 84.0017 83.217 83.7853 83.34C84.0641 83.4597 84.3011 83.6595 84.4662 83.9141C84.6313 84.1686 84.717 84.4665 84.7127 84.7699ZM83.2951 84.7249C83.2951 84.1898 82.8498 83.8588 82.1512 83.8588C81.4526 83.8588 81.0236 84.1898 81.0236 84.7249C81.0236 85.2601 81.4567 85.6033 82.1512 85.6033C82.8457 85.6033 83.2951 85.2642 83.2951 84.7249ZM81.2156 82.1512C81.2156 82.6128 81.5792 82.8988 82.1512 82.8988C82.7231 82.8988 83.103 82.6128 83.103 82.1512C83.103 81.6896 82.7354 81.4077 82.1512 81.4077C81.567 81.4077 81.2156 81.6773 81.2156 82.1512Z" fill="#263238"/>
<path d="M90.4362 84.7699C90.4362 85.9137 89.4108 86.6328 87.8706 86.6328C86.3304 86.6328 85.3214 85.9137 85.3214 84.7699C85.3179 84.4677 85.4031 84.1712 85.5665 83.9171C85.7299 83.6629 85.9643 83.4623 86.2406 83.34C86.0257 83.2159 85.8475 83.0372 85.724 82.8219C85.6006 82.6067 85.5364 82.3626 85.5379 82.1144C85.5379 81.0482 86.4939 80.3782 87.8706 80.3782C89.2473 80.3782 90.2196 81.0482 90.2196 82.1144C90.2195 82.3632 90.1537 82.6075 90.0289 82.8227C89.904 83.0379 89.7247 83.2163 89.5088 83.34C89.7873 83.4602 90.0239 83.6601 90.189 83.9145C90.354 84.169 90.44 84.4666 90.4362 84.7699ZM89.0145 84.7249C89.0145 84.1898 88.5733 83.8588 87.8706 83.8588C87.1679 83.8588 86.7431 84.1898 86.7431 84.7249C86.7431 85.2601 87.1761 85.6033 87.8706 85.6033C88.5651 85.6033 89.0145 85.2642 89.0145 84.7249ZM86.9351 82.1512C86.9351 82.6128 87.2987 82.8988 87.8706 82.8988C88.4425 82.8988 88.8225 82.6128 88.8225 82.1512C88.8225 81.6896 88.4548 81.4077 87.8706 81.4077C87.2864 81.4077 86.9351 81.6773 86.9351 82.1512Z" fill="#263238"/>
<path d="M93.4184 80.4639V86.5306H92.013V81.5915H90.7875V80.4639H93.4184Z" fill="#263238"/>
<path d="M99.0071 85.3867V86.5306H94.4234V85.6195L96.7602 83.4094C97.2994 82.8987 97.3934 82.5923 97.3934 82.29C97.3934 81.8161 97.0666 81.5383 96.4252 81.5383C96.182 81.5285 95.9401 81.5784 95.7207 81.6838C95.5013 81.7892 95.3111 81.9469 95.1669 82.143L94.1456 81.4852C94.4234 81.1134 94.7888 80.8158 95.2093 80.6191C95.6298 80.4224 96.0924 80.3326 96.5559 80.3577C97.9041 80.3577 98.8069 81.0522 98.8069 82.1511C98.8069 82.7435 98.6435 83.2787 97.7937 84.0671L96.3966 85.3867H99.0071Z" fill="#263238"/>
<path d="M104.069 84.6759C104.069 85.6972 103.28 86.6327 101.556 86.6327C100.737 86.6479 99.9317 86.422 99.24 85.9832L99.7874 84.9087C100.292 85.2699 100.899 85.4616 101.52 85.4562C102.222 85.4562 102.655 85.1702 102.655 84.6759C102.655 84.1815 102.316 83.9283 101.52 83.9283H100.878V83.0009L102.128 81.5915H99.5464V80.4639H103.791V81.3749L102.422 82.9314C103.513 83.1071 104.069 83.7812 104.069 84.6759Z" fill="#263238"/>
</svg>
