<svg width="80" height="80" viewBox="0 0 80 80" fill="none" xmlns="http://www.w3.org/2000/svg">
<g id="objects">
<g id="Group">
<path id="Vector" d="M40.1077 80C57.0113 80 70.7144 79.6564 70.7144 79.2326C70.7144 78.8088 57.0113 78.4652 40.1077 78.4652C23.2041 78.4652 9.50098 78.8088 9.50098 79.2326C9.50098 79.6564 23.2041 80 40.1077 80Z" fill="#D8DFEA"/>
<path id="Vector_2" d="M79.9998 7.89791V15.3571C79.9998 27.4715 68.9429 37.2956 55.3084 37.2956H51.8516L55.6886 33.781C66.9528 33.6011 76.0492 25.4049 76.0492 15.3571V9.65312H61.2344L61.7283 6.14301H78.0247C79.1158 6.1427 79.9998 6.92818 79.9998 7.89791Z" fill="#FF8B15"/>
<path id="Vector_3" d="M52.8397 58.4309V62.3052H27.1606V58.4309C27.1606 58.1151 27.3532 57.821 27.6643 57.6675L29.61 56.6934C32.9779 55.0086 35.0619 51.8451 35.0619 48.4094V44.3157H44.9384V48.4094C44.9384 51.8449 47.0225 55.0085 50.3903 56.6934L52.336 57.6675C52.6472 57.821 52.8397 58.1151 52.8397 58.4309Z" fill="#FF8B15"/>
<path id="Vector_4" d="M52.84 58.4309V62.3052H50.371V58.4309C50.371 58.1151 50.1785 57.821 49.8673 57.6675L47.9216 56.6934C44.5537 55.0086 42.4697 51.8451 42.4697 48.4094V44.3157H44.939V48.4094C44.939 51.8449 47.023 55.0085 50.3908 56.6934L52.3365 57.6675C52.6475 57.821 52.84 58.1151 52.84 58.4309Z" fill="#CE7430"/>
<path id="Vector_5" d="M47.9013 40.8932V43.4381C47.9013 44.6491 46.7952 45.6319 45.4321 45.6319H34.5679C33.2049 45.6319 32.0986 44.6491 32.0986 43.4381V40.8932H47.9013Z" fill="#FF8B15"/>
<path id="Vector_6" d="M44.9386 45.6321H35.062V46.9222H44.9386V45.6321Z" fill="#CE7430"/>
<path id="Vector_7" d="M56.7907 61.4278V76.7847H23.2104V61.4278C23.2104 60.9452 23.655 60.5503 24.1981 60.5503H55.8031C56.3464 60.5503 56.7907 60.9452 56.7907 61.4278Z" fill="#343B49"/>
<path id="Vector_8" d="M56.7906 61.4278V76.7847H54.8153V61.4278C54.8153 60.9452 54.3708 60.5503 53.8276 60.5503H55.8029C56.3463 60.5503 56.7906 60.9452 56.7906 61.4278Z" fill="#262D38"/>
<path id="Vector_9" d="M59.7533 76.3459V78.101C59.7533 78.5836 59.3088 78.9785 58.7656 78.9785H21.2347C20.6916 78.9785 20.2471 78.5836 20.2471 78.101V76.3459C20.2471 75.8633 20.6916 75.4684 21.2347 75.4684H58.7656C59.3089 75.4684 59.7533 75.8633 59.7533 76.3459Z" fill="#262D38"/>
<path id="Vector_10" d="M59.753 76.3459V78.101C59.753 78.5836 59.3085 78.9785 58.7654 78.9785H56.79C57.3332 78.9785 57.7777 78.5836 57.7777 78.101V76.3459C57.7777 75.8633 57.3332 75.4684 56.79 75.4684H58.7654C59.3087 75.4684 59.753 75.8633 59.753 76.3459Z" fill="#171C23"/>
<path id="Vector_11" d="M51.8522 64.9379V71.0806C51.8522 71.5633 51.4076 71.9582 50.8645 71.9582H29.1361C28.593 71.9582 28.1484 71.5633 28.1484 71.0806V64.9379C28.1484 64.4553 28.593 64.0604 29.1361 64.0604H50.8645C51.4078 64.0604 51.8522 64.4553 51.8522 64.9379Z" fill="#FF8B15"/>
<path id="Vector_12" d="M47.9016 40.8932V43.4381C47.9016 44.6491 46.7955 45.6319 45.4323 45.6319H43.457C44.82 45.6319 45.9263 44.6491 45.9263 43.4381V40.8932H47.9016Z" fill="#CE7430"/>
<path id="Vector_13" d="M29.6297 37.2955H24.6914C11.0569 37.2955 0 27.4714 0 15.3569V7.89794C0 6.92821 0.884003 6.14288 1.97531 6.14288H18.2717V9.653H3.95062V15.3569C3.95062 25.4048 13.047 33.6009 24.3112 33.7809L29.6297 37.2955Z" fill="#FF8B15"/>
<path id="Vector_14" d="M64.1975 2.6326V4.38766C64.1975 25.7118 53.3629 42.9994 39.9999 42.9994C26.6369 42.9994 15.8022 25.712 15.8022 4.38766V2.6326H64.1975Z" fill="#FF8B15"/>
<path id="Vector_15" d="M16.0244 9.653H14.0491C13.9503 8.49902 13.8862 7.32759 13.8516 6.14288H15.8269C15.8615 7.32744 15.9257 8.49902 16.0244 9.653Z" fill="#CE7430"/>
<path id="Vector_16" d="M27.3386 37.2955H25.3632C24.262 36.2161 23.2151 34.9963 22.2422 33.6536C22.9238 33.7282 23.61 33.7677 24.3114 33.7809C25.2596 35.0752 26.2719 36.2511 27.3386 37.2955Z" fill="#CE7430"/>
<path id="Vector_17" d="M47.9016 40.8932V41.7708C45.4226 43.1354 42.7658 43.8769 40.0004 43.8769C37.235 43.8769 34.5781 43.1354 32.0991 41.7708V40.8932C34.5781 42.2579 37.235 42.9993 40.0004 42.9993C42.7658 42.9993 45.4226 42.2579 47.9016 40.8932Z" fill="#CE7430"/>
<path id="Vector_18" d="M64.1977 2.6326V4.38766C64.1977 25.045 54.0297 41.9157 41.2446 42.9512C53.6694 41.9026 58.2718 25.0363 58.2718 4.38766V2.6326H64.1977Z" fill="#CE7430"/>
<path id="Vector_19" d="M66.6666 2.19382C66.6666 2.79938 66.3901 3.3478 65.9455 3.74703C65.4961 4.14193 64.8789 4.38764 64.1974 4.38764H15.8022C14.4393 4.38764 13.333 3.40479 13.333 2.19382C13.333 1.58826 13.6095 1.03985 14.0541 0.640617C14.5034 0.245714 15.1207 0 15.8022 0H64.1975C65.5605 0 66.6666 0.982857 66.6666 2.19382Z" fill="#FF8B15"/>
<path id="Vector_20" d="M64.1975 4.38763C64.1975 4.97559 64.1876 5.55922 64.1728 6.14269H15.8269C15.8122 5.55906 15.8022 4.97559 15.8022 4.38763H64.1975Z" fill="#CE7430"/>
<path id="Vector_21" d="M66.667 2.19382C66.667 2.79938 66.3905 3.3478 65.946 3.74703C65.4966 4.14193 64.8794 4.38764 64.1978 4.38764H58.7656C59.4472 4.38764 60.0644 4.14193 60.5138 3.74703C60.9583 3.3478 61.2349 2.79923 61.2349 2.19382C61.2349 0.982857 60.1288 0 58.7656 0H64.1978C65.561 0 66.667 0.982857 66.667 2.19382Z" fill="#CE7430"/>
<path id="Vector_22" d="M51.8519 64.9379V71.0806C51.8519 71.5633 51.4073 71.9582 50.8642 71.9582H31.2593C35.2494 71.8879 48.3952 71.1333 48.3952 64.0602H50.8644C51.4075 64.0604 51.8519 64.4553 51.8519 64.9379Z" fill="#CE7430"/>
<path id="Vector_23" d="M29.1362 68.8868V65.2968C29.1362 65.0985 29.3171 64.9379 29.5402 64.9379H38.3956C38.3956 64.9379 31.3585 65.5961 29.1362 68.8868Z" fill="#FFAA5C"/>
<path id="Vector_24" d="M24.3213 65.3767V61.7867C24.3213 61.5884 24.5022 61.4278 24.7253 61.4278H33.5806C33.5806 61.4278 26.5434 62.0859 24.3213 65.3767Z" fill="#4E5868"/>
<path id="Vector_25" d="M40 41.6831C34.637 41.6831 19.7629 31.6309 17.9604 7.89777H23.8271C25.3036 36.9356 40 41.6831 40 41.6831Z" fill="#FFAA5C"/>
<path id="Vector_26" d="M29.6299 58.7952C29.6299 58.7952 36.5435 54.8463 36.5435 49.1422V58.7952H29.6299Z" fill="#FFAA5C"/>
<path id="Vector_27" d="M16.7905 0.877533V2.19383H14.3213C14.3213 1.46981 14.983 0.877533 15.8029 0.877533H16.7905Z" fill="#FFAA5C"/>
<path id="Vector_28" d="M65.654 6.1427C65.6194 7.32741 65.5553 8.49884 65.4516 9.65282H61.2344L61.7283 6.1427H65.654Z" fill="#CE7430"/>
<path id="Vector_29" d="M57.2293 33.7062C56.2615 35.0269 55.2293 36.2292 54.1429 37.2954H51.8516L53.5997 35.6984L55.6886 33.781C56.2072 33.772 56.7208 33.7458 57.2293 33.7062Z" fill="#CE7430"/>
</g>
</g>
</svg>
