<svg width="173" height="173" viewBox="0 0 173 173" fill="none" xmlns="http://www.w3.org/2000/svg">
<g id="Frame 34">
<g id="Group 214">
<g id="OBJECTS">
<g id="Group">
<g id="Group_2">
<g id="Group_3">
<g id="Group_4">
<path id="Vector" d="M129.75 129.75C153.636 105.864 153.636 67.1363 129.75 43.25C105.864 19.3637 67.1363 19.3637 43.25 43.25C19.3637 67.1363 19.3637 105.864 43.25 129.75C67.1363 153.636 105.864 153.636 129.75 129.75Z" fill="#66BF64"/>
<path id="Vector_2" d="M83.5084 27.9019C117.525 27.9019 145.101 55.4779 145.101 89.495C145.101 91.6985 144.981 93.8732 144.755 96.0171C145.257 92.9181 145.529 89.7421 145.529 86.5012C145.529 53.9018 119.102 27.4746 86.5022 27.4746C83.2614 27.4746 80.0853 27.7462 76.9863 28.2486C79.1302 28.0225 81.3049 27.9019 83.5084 27.9019Z" fill="#66BF64"/>
<path id="Vector_3" d="M28.7472 83.6572C28.7472 117.674 56.3232 145.25 90.3402 145.25C92.5438 145.25 94.7185 145.129 96.8623 144.904C93.7634 145.406 90.5873 145.678 87.3464 145.678C54.747 145.678 28.3198 119.251 28.3198 86.6514C28.3198 83.4105 28.5914 80.2345 29.0939 77.1355C28.8681 79.279 28.7472 81.4536 28.7472 83.6572Z" fill="#FBF4E0"/>
<path id="Vector_4" d="M126.121 126.12C148.002 104.239 148.002 68.7613 126.121 46.8795C104.239 24.9977 68.7614 24.9977 46.8795 46.8795C24.9977 68.7613 24.9977 104.239 46.8795 126.12C68.7614 148.002 104.239 148.002 126.121 126.12Z" fill="#66BF64"/>
<path id="Vector_5" d="M124.306 124.306C145.185 103.426 145.185 69.5738 124.306 48.6943C103.426 27.8147 69.5737 27.8147 48.6942 48.6943C27.8147 69.5738 27.8146 103.426 48.6942 124.306C69.5737 145.185 103.426 145.185 124.306 124.306Z" fill="#008755"/>
<path id="Vector_6" d="M117.854 117.854C135.17 100.538 135.17 72.4625 117.854 55.1462C100.538 37.83 72.4625 37.83 55.1463 55.1462C37.8301 72.4625 37.8301 100.538 55.1463 117.854C72.4625 135.17 100.538 135.17 117.854 117.854Z" fill="#FBF4E0"/>
<path id="Vector_7" d="M120.273 120.273C138.926 101.621 138.926 71.3793 120.273 52.7268C101.621 34.0744 71.3792 34.0744 52.7268 52.7268C34.0744 71.3793 34.0744 101.621 52.7268 120.273C71.3792 138.926 101.621 138.926 120.273 120.273Z" fill="white"/>
</g>
<path id="Vector_8" d="M82.6711 37.7527L83.5266 45.4517L86.5204 44.5962V35.1862L82.6711 35.6139V37.7527Z" fill="#66BF64"/>
<path id="Vector_9" d="M84.8101 128.859L85.6655 136.558L88.6594 135.702V126.292L84.8101 126.72V128.859Z" fill="#66BF64"/>
<path id="Vector_10" d="M37.546 88.866L45.2449 88.0105L44.3895 85.0167H34.9795L35.4072 88.866H37.546Z" fill="#66BF64"/>
<path id="Vector_11" d="M128.652 86.7273L136.351 85.8722L135.496 82.878H126.086L126.513 86.7273H128.652Z" fill="#66BF64"/>
<path id="Vector_12" d="M53.7567 122.015L58.5959 115.966L55.8741 114.454L49.22 121.107L52.2446 123.527L53.7567 122.015Z" fill="#66BF64"/>
<path id="Vector_13" d="M116.667 56.0808L121.506 50.0315L118.784 48.5194L112.13 55.1731L115.154 57.5929L116.667 56.0808Z" fill="#66BF64"/>
<path id="Vector_14" d="M121.808 117.781L115.759 112.941L114.247 115.663L120.901 122.317L123.32 119.293L121.808 117.781Z" fill="#66BF64"/>
<path id="Vector_15" d="M55.8739 54.8707L49.8246 50.0315L48.3125 52.7537L54.9666 59.4075L57.386 56.3832L55.8739 54.8707Z" fill="#66BF64"/>
</g>
<path id="Vector_16" d="M83.2368 85.4935C83.2368 85.4935 83.5831 48.791 85.6606 48.791C87.738 48.791 88.7769 86.1861 88.7769 86.1861L83.2368 85.4935Z" fill="#66BF64"/>
<path id="Vector_17" d="M89.4695 86.8787C89.4695 86.8787 110.245 93.4573 111.63 95.8811C113.014 98.3048 87.3921 90.6873 87.3921 90.6873L89.4695 86.8787Z" fill="#66BF64"/>
<path id="Vector_18" d="M90.7376 88.3461C91.356 85.7412 89.7456 83.1282 87.1407 82.5097C84.5358 81.8913 81.9228 83.5016 81.3043 86.1066C80.6859 88.7115 82.2963 91.3245 84.9012 91.943C87.5061 92.5614 90.1192 90.951 90.7376 88.3461Z" fill="#008755"/>
</g>
<path id="Vector_19" d="M137.947 42.9947C137.947 42.9947 144.272 47.3433 146.644 56.8311C148.621 53.6685 147.04 46.5526 137.947 42.9947Z" fill="#66BF64"/>
<path id="Vector_20" d="M33.9476 128.709C33.9476 128.709 27.7465 124.185 25.641 114.635C23.5766 117.74 24.9582 124.898 33.9476 128.709Z" fill="#66BF64"/>
<path id="Vector_21" d="M29.3848 51.2863C29.3848 51.2863 34.5161 40.3784 48.6166 34.2908C43.2129 32.0315 32.5873 36.2911 29.3848 51.2863Z" fill="#66BF64"/>
<path id="Vector_22" d="M30.2537 43.3663C30.2537 43.3663 32.1801 36.7972 38.1879 33.4669C35.7483 31.9129 31.2111 34.2204 30.2537 43.3663Z" fill="#66BF64"/>
<path id="Vector_23" d="M144.437 42.5994C144.437 42.5994 148.955 45.7055 150.649 52.4825C152.061 50.2236 150.931 45.1409 144.437 42.5994Z" fill="#66BF64"/>
</g>
</g>
</g>
</g>
</svg>
